<?xml version="1.0" encoding="UTF-8" standalone="no"?>
<svg
   version="1.0"
   width="1100pt"
   height="600pt"
   viewBox="0 0 1100 600"
   preserveAspectRatio="xMidYMid"
   id="svg32"
   sodipodi:docname="logo2.svg"
   inkscape:version="1.4.2 (1:1.4.2+202505120738+ebf0e940d0)"
   xml:space="preserve"
   xmlns:inkscape="http://www.inkscape.org/namespaces/inkscape"
   xmlns:sodipodi="http://sodipodi.sourceforge.net/DTD/sodipodi-0.dtd"
   xmlns="http://www.w3.org/2000/svg"
   xmlns:svg="http://www.w3.org/2000/svg"><defs
     id="defs32" /><sodipodi:namedview
     id="namedview32"
     pagecolor="#ffffff"
     bordercolor="#000000"
     borderopacity="0.25"
     inkscape:showpageshadow="2"
     inkscape:pageopacity="0.0"
     inkscape:pagecheckerboard="0"
     inkscape:deskcolor="#d1d1d1"
     inkscape:document-units="pt"
     inkscape:zoom="0.25"
     inkscape:cx="740"
     inkscape:cy="844"
     inkscape:window-width="1366"
     inkscape:window-height="657"
     inkscape:window-x="0"
     inkscape:window-y="27"
     inkscape:window-maximized="1"
     inkscape:current-layer="svg32"
     showguides="true" /><g
     id="g31"
     transform="matrix(1.8781753,0,0,1.8781753,-482.99595,-263.44983)"><path
       id="rect3-5-0"
       style="fill:#ff6d00;fill-opacity:1;stroke-width:13.9538;stroke-linecap:round;stroke-linejoin:round"
       d="m 549.73198,419.50086 -0.10233,-46.22418 h -0.002 46.32527 z"
       sodipodi:nodetypes="ccccc" /><path
       id="rect3-5-0-2"
       style="fill:#ff6d00;fill-opacity:1;stroke-width:13.9538;stroke-linecap:round;stroke-linejoin:round"
       d="m 549.97653,181.26316 0.10233,46.22418 h 0.002 -46.32527 z"
       sodipodi:nodetypes="ccccc" /><g
       id="g30"
       transform="matrix(1.06362,0,0,1.06362,-35.188238,-19.085995)"
       style="fill:#0b2816;fill-opacity:1;stroke:none"><g
         id="g2"
         inkscape:label="leao"
         transform="matrix(0.57529752,0,0,0.57529752,443.28037,127.23121)"
         style="fill:#0b2816;fill-opacity:1;stroke:#0e361e;stroke-width:0.81713;stroke-dasharray:none;stroke-opacity:1"><path
           d="m -112.34829,206.57933 c 0,0.14337 0.50179,1.43369 1.14695,2.93907 0.57348,1.43369 1.00358,2.72401 0.86021,2.86738 -0.35842,0.35843 -9.39068,-1.64874 -14.26523,-3.2258 -2.50896,-0.78853 -5.23297,-1.43369 -6.0215,-1.43369 -1.72043,0 -13.4767,2.65232 -27.16846,6.09318 -5.51971,1.36201 -10.10752,2.50896 -10.25089,2.50896 -0.0717,0 -0.21506,0.28674 -0.21506,0.57348 0,0.35842 3.22581,1.21864 7.16846,1.93548 3.94265,0.78854 7.16846,1.57707 7.16846,1.79212 0,0.28674 -2.50896,1.8638 -5.51971,3.58423 -13.4767,7.52688 -27.4552,16.91756 -18.1362,12.18638 4.30107,-2.22222 21.362,-12.04301 23.79928,-13.69176 2.43727,-1.79211 3.79928,-1.72043 14.33691,0.50179 4.87456,1.00359 11.25448,2.15054 14.19355,2.58065 2.93907,0.35842 6.02151,0.86021 6.81004,1.00358 0.86021,0.14337 2.15053,1.50538 3.08243,3.29749 0.86022,1.72043 2.29391,4.15771 3.08244,5.44803 0.86022,1.29032 1.36201,2.50896 1.14695,2.72402 -0.50179,0.50179 -7.16845,-3.94266 -11.97132,-7.88531 -2.15054,-1.79211 -4.15771,-3.2258 -4.37276,-3.15412 -0.21505,0.14337 -3.22581,1.36201 -6.66667,2.72401 l -6.16487,2.50897 v 2.86738 c 0,1.57706 -0.28674,3.29749 -0.57348,3.7276 -0.50179,0.78853 -8.88889,5.23297 -9.7491,5.23297 -0.14337,0 -1.50538,-2.07885 -2.93907,-4.6595 -1.43369,-2.58064 -2.86738,-4.51613 -3.15412,-4.30107 -0.35842,0.14337 -1.14695,3.29749 -1.8638,6.88172 l -1.29032,6.59498 -6.16487,2.7957 c -14.19355,6.59498 -19.71326,9.39068 -18.92473,9.67742 0.50179,0.21505 5.94982,-1.93549 12.04301,-4.73119 6.16487,-2.79569 11.46953,-5.0896 11.75627,-5.0896 0.50179,0 -0.0717,3.15412 -3.29749,19.64157 -0.35843,1.93549 -1.14696,3.22581 -2.43728,3.94266 -2.00717,1.21863 -6.9534,4.44444 -10.10753,6.66666 -2.50896,1.64875 -2.50896,1.57706 -0.78853,-7.81362 l 1.14696,-6.66666 5.16129,-3.22581 c 5.66308,-3.51254 6.45161,-3.79928 5.80645,-2.15054 -0.21506,0.57348 -0.14337,1.07527 0.21505,1.07527 0.71685,0 1.72043,-4.37276 1.14696,-4.94623 -0.28674,-0.21506 -0.64517,-0.0717 -0.9319,0.35842 -0.28674,0.35842 -2.86739,2.07885 -5.80646,3.87097 -2.86738,1.72043 -5.66308,3.51254 -6.16487,4.01433 -0.43011,0.50179 -1.57706,4.73118 -2.43728,9.46237 l -1.57706,8.53046 -3.2258,2.00717 c -3.22581,2.07885 -5.01792,3.7276 -4.51613,4.30107 0.21505,0.14337 1.8638,-0.71684 3.79928,-1.86379 2.7957,-1.79212 3.36918,-1.93549 3.01075,-0.86022 -0.21505,0.71685 -0.50179,2.07885 -0.71684,3.08244 -0.21505,1.00358 -1.07527,4.6595 -1.8638,8.17204 -1.07527,4.37276 -1.29032,6.59498 -0.78853,7.09677 0.9319,0.9319 0.78853,1.21864 3.36917,-10.89605 1.29033,-6.02151 2.50896,-10.03584 3.22581,-10.75269 1.72043,-1.57706 12.75986,-8.24373 13.11828,-7.8853 0.14337,0.14337 -0.35842,2.86738 -1.14695,6.0215 -3.15413,12.97491 -8.24373,39.13978 -7.67025,39.4982 0.35842,0.14337 0.78853,-0.35842 1.00358,-1.29032 0.14337,-0.9319 1.14695,-5.51971 2.15054,-10.25089 1.00358,-4.73118 2.2939,-10.68101 2.86738,-13.26165 0.50179,-2.58064 1.8638,-8.67383 2.86738,-13.62007 1.07527,-4.94624 2.15054,-9.17563 2.36559,-9.39068 2.22223,-1.93548 13.0466,-8.31541 13.0466,-7.59857 -0.0717,1.4337 -1.93549,10.53764 -2.22222,10.82438 -0.14337,0.0717 -2.22223,1.50537 -4.6595,3.15412 -4.08602,2.72401 -4.44445,3.15412 -5.16129,6.73835 -0.43011,2.07885 -2.29391,10.75268 -4.01434,19.21147 -1.79211,8.45878 -3.44086,16.20071 -3.7276,17.13261 -0.35842,1.29032 -0.28673,1.64875 0.43011,1.36201 0.64516,-0.21506 2.36559,-7.09678 5.08961,-20.50179 2.22222,-11.11111 4.1577,-20.35842 4.30107,-20.50179 0.14337,-0.0717 1.79212,-1.21864 3.7276,-2.50896 2.50896,-1.72043 3.36918,-2.00717 3.36918,-1.21864 0,0.64516 -1.14696,6.88172 -2.58065,13.83512 -1.43369,7.02509 -3.29749,16.63083 -4.22939,21.36201 -0.9319,4.73118 -2.00717,10.03584 -2.50896,11.68458 l -0.78853,3.15413 4.30107,3.94265 c 9.03226,8.10036 18.49463,23.51254 20.21506,32.75985 0.4301,2.29391 0.64516,6.59498 0.50179,9.46237 -0.14337,2.93906 -0.0717,5.30465 0.21505,5.30465 1.36201,0 8.10036,-5.23297 12.68817,-9.89247 5.51971,-5.66308 11.11111,-13.4767 17.84946,-24.80286 l 3.79929,-6.45161 v 2.93906 c 0,1.57706 -0.5018,5.73477 -1.07527,9.17563 -0.64516,3.44086 -1.00359,6.45161 -0.78853,6.59498 0.57347,0.57348 5.44802,-5.80645 7.8853,-10.46595 3.225806,-6.16487 4.731182,-11.97132 4.731182,-18.1362 0,-2.65233 0.286739,-4.87455 0.716846,-4.87455 1.218638,0 8.243727,6.16488 9.175626,8.10036 l 0.9319,1.93548 4.086021,-2.65233 c 2.222222,-1.43369 5.089605,-3.2258 6.308243,-3.94265 2.150537,-1.21864 2.222222,-1.57706 2.939068,-8.10036 0.645161,-6.30824 0.860215,-6.9534 3.29749,-9.60573 2.437276,-2.72401 3.44086,-5.16129 4.516129,-10.89606 0.286738,-1.29032 1.433691,-3.94265 2.580645,-5.80645 2.580645,-4.08602 2.222222,-6.0215 -2.078853,-11.03942 -1.648745,-1.93549 -5.806451,-6.88172 -9.175626,-11.03943 l -6.236559,-7.52688 0.358423,-3.7276 c 0.358423,-3.58423 0.215054,-4.01433 -2.50896,-7.59856 -1.648745,-2.00717 -4.22939,-5.08961 -5.734767,-6.73835 -3.010752,-3.36918 -3.010752,-2.93907 0.14337,-9.60574 0.716845,-1.64874 0.430107,-2.72401 -3.225807,-10.25089 -2.580644,-5.30466 -4.372759,-8.17204 -4.802866,-7.74194 -0.358423,0.35843 -1.505377,4.73119 -2.508961,9.74911 -1.075268,4.94623 -2.150537,8.8172 -2.365591,8.53046 -0.286738,-0.35842 -0.931899,-1.72043 -1.433691,-3.08243 -0.9319,-2.3656 -3.297492,-7.31183 -7.383512,-15.41219 -2.50896,-5.01792 -4.15771,-8.96057 -3.65591,-8.96057 0.21505,0 1.29032,0.64516 2.2939,1.50537 3.7276,2.86739 11.756274,7.88531 12.114697,7.52689 0.215054,-0.21506 -1.146953,-1.4337 -3.082437,-2.72402 -1.863799,-1.29032 -5.73477,-4.22939 -8.67383,-6.5233 -4.87456,-3.79928 -5.94982,-4.51612 -5.94982,-3.79928 z m -7.88531,4.73118 c 4.15771,1.07527 8.3871,2.15054 9.39068,2.43728 1.29032,0.28674 2.15054,1.14695 2.7957,2.72401 0.43011,1.29033 3.08244,7.02509 5.73477,12.75986 2.652326,5.73477 4.731179,10.60932 4.58781,10.82437 -0.143369,0.28674 -1.505376,0.14337 -2.93907,-0.14337 -1.50537,-0.35842 -3.94265,-0.78853 -5.44803,-1.00358 -2.86738,-0.43011 -2.72401,-0.28674 -8.45878,-9.89247 l -1.8638,-3.15413 -8.53046,-1.57706 c -4.6595,-0.86021 -15.41219,-2.93906 -23.87097,-4.51613 l -15.41218,-2.93906 4.6595,-1.29033 c 2.50896,-0.71684 6.52329,-1.64874 8.88889,-2.07885 4.65949,-0.86021 7.95698,-0.43011 27.24014,3.87097 8.17204,1.79211 15.19713,2.86738 14.55197,2.22222 -0.43011,-0.43011 -16.12904,-4.08602 -26.23656,-6.0215 -3.65591,-0.78853 -6.88172,-1.50538 -7.09677,-1.72043 -0.21506,-0.28674 0.57347,-0.64517 1.64874,-0.9319 1.14695,-0.21506 3.51255,-0.86022 5.30466,-1.36201 3.7276,-1.07527 4.87455,-0.9319 15.05376,1.79211 z m 35.770607,23.22581 c 0.645161,0.71684 0.358423,1.8638 -1.003584,4.6595 -1.863799,3.58422 -2.724014,4.1577 -4.444444,3.08243 -0.645161,-0.4301 -0.645161,-1.50537 0.143369,-4.80286 0.573477,-2.3656 1.003584,-4.80287 0.9319,-5.37635 0,-0.57347 -0.573477,1.14696 -1.218638,3.94265 -1.146953,4.51613 -1.433692,5.01792 -3.154122,5.23298 -1.075268,0.14337 -1.935483,0 -1.935483,-0.21506 0,-1.07526 2.939068,-17.99282 3.29749,-18.99641 0.286739,-0.64516 1.577061,1.36201 3.512545,5.23298 1.648745,3.44086 3.44086,6.66666 3.870967,7.24014 z m -36.415767,-0.86022 c 3.44086,2.50896 6.81004,4.87455 7.52688,5.37635 1.36201,0.78853 1.29032,0.86021 -0.0717,1.93548 -3.08244,2.43728 -4.37276,2.22222 -9.03226,-1.64875 -4.58781,-3.87096 -5.51971,-4.1577 -9.10394,-2.86738 -1.93549,0.64516 -2.29391,1.21864 -3.01075,4.6595 -0.57348,2.72401 -0.64517,4.80287 -0.14337,6.59498 l 0.71684,2.65233 0.14337,-3.94265 c 0.28674,-6.73835 0.78853,-8.02867 3.58423,-8.96057 2.50896,-0.86022 2.72401,-0.78853 5.73477,1.86379 1.72249,1.32565 4.56378,3.72549 4.80286,3.87097 0.53759,0.73817 0.52587,0.76298 0.06,1.09459 -2.74292,0.98814 -8.90504,5.42771 -12.81982,8.08104 -4.82768,3.76349 -9.53587,7.39767 -7.79441,-2.33941 -0.13777,-3.45058 -0.0909,-3.61041 0.76932,-9.41686 0.50179,-3.65592 1.36201,-6.81004 1.93548,-7.31183 1.07527,-0.86021 8.3871,-3.87097 9.82079,-4.01434 0.43011,0 3.51255,1.93549 6.88172,4.37276 z m -33.18996,7.67025 c 0.86022,1.50538 1.57706,3.15412 1.57706,3.58423 0,0.78853 -5.01792,3.22581 -5.51971,2.65233 -0.50179,-0.43011 1.36201,-9.03226 1.8638,-9.03226 0.28674,0 1.21864,1.21864 2.07885,2.7957 z m 53.18996,0.0717 c 3.727597,0.78853 7.741933,1.43369 8.888886,1.43369 2.150538,0 3.010753,0.78853 10.967741,9.82079 l 4.372759,5.01792 -0.358422,4.22939 c -0.286739,3.87096 -0.14337,4.37276 1.720429,6.37993 1.075269,1.21863 3.297491,3.79928 4.874552,5.73476 1.577061,2.00717 3.942652,4.80287 5.376343,6.30824 3.942652,4.37276 7.240143,9.319 6.594982,9.96416 -0.358423,0.35842 -2.078853,0.28674 -3.799283,-0.21505 -1.72043,-0.43011 -4.659498,-0.71685 -6.451612,-0.71685 -2.365591,0.0717 -3.799283,-0.28674 -5.232975,-1.43369 -1.075268,-0.86021 -2.150537,-1.36201 -2.365591,-1.14695 -0.860215,0.9319 3.225806,6.66666 6.09319,8.60215 2.580645,1.72043 3.010752,2.36559 3.010752,4.51612 0,4.37276 -2.437276,8.02868 -6.666666,10.03585 -6.666666,3.08243 -10.609318,3.58423 -17.275984,2.22222 -7.67025,-1.57706 -7.741934,-1.57706 -7.455196,0.71684 0.143369,1.36201 0.716846,2.07886 2.007168,2.43728 3.225806,0.9319 9.103942,0.64516 13.76344,-0.50179 2.50896,-0.64516 6.308243,-1.21864 8.45878,-1.29032 4.587813,-0.0717 4.587813,-0.0717 3.870967,8.67383 -0.358423,4.80287 -0.573476,5.23297 -2.652329,6.59498 -1.290323,0.71685 -3.369175,2.07885 -4.731182,2.93907 l -2.437276,1.50537 0.358423,-3.08243 0.430107,-3.08244 -1.218638,2.58065 -1.146953,2.58064 -3.297491,-2.93907 c -1.863799,-1.57706 -6.379927,-4.6595 -10.17921,-6.73835 -7.670251,-4.30107 -8.100361,-4.73118 -11.111111,-10.17921 -1.14695,-2.15054 -3.7276,-6.66666 -5.80645,-9.96415 -2.00717,-3.2975 -3.65591,-6.30825 -3.65591,-6.66667 0,-0.78853 0.57347,-0.71685 8.60215,0.50179 3.72759,0.57348 7.02509,1.07527 7.24014,1.07527 0.215053,0 0.286737,1.57706 0.0717,3.51254 -0.14337,1.93549 0.07169,4.08603 0.501795,4.80287 0.573477,1.07527 0.716846,0.64516 0.645162,-2.29391 -0.215054,-4.30107 1.863799,-7.8853 7.311827,-12.9749 1.863799,-1.79212 2.795698,-3.01076 2.150537,-3.08244 -0.573476,0 -3.010752,2.00717 -5.376343,4.44444 l -4.301075,4.51613 -4.659493,-0.78853 c -2.58065,-0.50179 -6.02151,-0.86021 -7.67025,-0.9319 -1.64875,-0.0717 -3.15413,-0.35842 -3.36918,-0.71684 -0.21505,-0.35843 0.14337,-3.08244 0.78853,-6.09319 l 1.21864,-5.51972 2.50896,0.43011 c 6.37993,1.00359 7.24014,0.9319 3.15412,-0.14337 l -4.44444,-1.14695 -4.73119,-11.11111 -4.80286,-11.03943 1.29032,-5.16129 c 1.8638,-7.59856 2.7957,-9.39068 6.16487,-11.75627 3.7276,-2.65233 4.15771,-2.65233 12.75986,-0.86021 z m -42.19524,14.63463 c -1.49977,3.00229 -3.84172,10.25942 -3.68287,1.27934 0.78853,-4.01433 0.78853,-4.37276 -1.00359,-7.8853 l -1.8638,-3.7276 4.08603,-2.07885 c 2.2939,-1.14695 4.22939,-2.15054 4.37275,-2.15054 -1.84625,4.23986 0.39194,10.16097 -1.90852,14.56295 z m 22.55366,-4.81384 c -0.71684,2.72401 -1.43369,5.23297 -1.72043,5.66308 -0.57347,0.86021 -22.07885,15.3405 -22.79569,15.3405 -0.21506,0 -0.28674,-0.71685 -0.0717,-1.64875 0.21506,-0.86021 0.71685,-3.44086 1.21864,-5.66308 l 0.78853,-4.01434 8.02867,-5.0896 c 4.44445,-2.72402 9.60574,-6.09319 11.54122,-7.52688 2.00717,-1.36201 3.7276,-2.36559 3.87097,-2.22222 0.14337,0.14336 -0.21506,2.50896 -0.86022,5.16129 z m -28.74551,-1.4337 c 1.8638,3.29749 1.8638,3.65592 1.07527,8.10036 -0.43011,2.58065 -1.00359,5.01792 -1.29033,5.37634 -0.57347,0.86022 -12.47311,8.96058 -13.11827,8.96058 -0.43011,0 1.14695,-10.17921 3.01075,-18.99642 0.64516,-3.36917 0.9319,-3.65591 4.08602,-5.16129 1.8638,-0.78853 3.58423,-1.57706 3.87097,-1.57706 0.21505,-0.0717 1.29032,1.43369 2.36559,3.29749 z m 25.44802,16.2724 -0.86021,5.08961 -6.59498,4.1577 c -3.58423,2.29391 -8.74552,5.73477 -11.54122,7.59857 -2.72401,1.93548 -5.16129,3.22581 -5.23298,2.86738 -0.14336,-0.35842 0.28674,-3.08243 0.9319,-6.09319 l 1.14696,-5.30466 11.25448,-7.45519 c 6.16487,-4.08602 11.39784,-7.09678 11.54121,-6.66667 0.14337,0.35843 -0.14337,2.93907 -0.64516,5.80645 z m 5.08961,2.22223 c 3.08243,7.16845 3.65591,8.74551 4.22939,10.39426 0.50179,1.79211 -1.29032,13.76344 -2.29391,14.69534 -0.21505,0.28674 -2.2939,-2.7957 -4.51613,-6.73835 l -4.08602,-7.24015 1.57706,-7.31182 c 2.22222,-10.60932 2.22222,-10.60932 3.08244,-8.45878 0.43011,1.00358 1.29032,3.08243 2.00717,4.6595 z m -27.09677,-0.57348 c -1.00359,4.37276 -2.50896,7.38351 -3.79929,7.38351 -1.00358,0 1.36201,-10.32258 2.58065,-11.25448 2.15054,-1.57706 2.36559,-1.07527 1.21864,3.87097 z m 20.21505,7.52688 c -0.28674,0.9319 -0.64516,2.22222 -0.78853,2.86738 -0.35842,1.21864 1.57706,5.51972 6.16487,13.4767 10.2509,17.84946 9.46237,16.12903 9.03226,20.21506 -0.28674,2.07885 -0.9319,5.87813 -1.50538,8.45878 -0.57347,2.58064 -2.65233,13.04659 -4.6595,23.29748 -2.00716,10.2509 -4.30107,20.07169 -5.0896,21.8638 -1.29032,2.93907 -9.53405,12.18638 -10.82437,12.18638 -0.35842,0 0.21505,-1.29032 1.29032,-2.7957 2.22222,-3.36917 5.30466,-12.25806 5.30466,-15.3405 0,-4.1577 3.22581,-20.86021 7.16846,-37.77777 0.78853,-3.36918 1.43369,-6.81004 1.43369,-7.67025 0,-2.00717 -9.7491,-20.07169 -10.46595,-19.42652 -0.14337,0.21505 -1.29032,5.30465 -2.50896,11.39784 -1.21864,6.09319 -2.50896,12.61649 -2.93907,14.62366 -1.14695,5.80645 -1.57706,6.0215 -3.79928,2.22222 l -2.00717,-3.44086 2.36559,-11.54122 c 1.29033,-6.37992 3.22581,-16.05734 4.30108,-21.50537 1.07527,-5.44803 2.07885,-9.96416 2.22222,-10.10753 3.87097,-2.93906 5.94982,-3.36917 5.30466,-1.00358 z m -23.29749,6.09319 c -0.78853,2.58064 -1.57706,7.59856 -1.8638,10.96774 -0.64516,8.31541 1.00358,13.69175 7.31183,24.08602 6.59498,10.82437 12.75985,23.36917 14.26523,29.10394 0.9319,3.51254 1.14695,6.45161 0.9319,11.46953 -0.35842,7.24014 -1.79212,11.68459 -5.73477,18.49462 l -2.36559,3.94265 -0.43011,-6.45161 c -0.57347,-7.24014 -1.72043,-11.18279 -5.66308,-19.0681 -2.22222,-4.58781 -7.67025,-12.83154 -9.24731,-14.26523 -0.28674,-0.21505 -2.50896,-2.50896 -4.94623,-5.16129 l -4.51613,-4.73118 2.15053,-10.681 c 2.43728,-11.97133 2.72402,-13.11828 3.94266,-13.11828 0.50179,0 0.4301,-0.21505 -0.14337,-0.64516 -1.36201,-0.86022 3.2258,-25.66308 5.01792,-27.4552 2.2939,-2.2939 2.65233,-1.362 1.29032,3.51255 z m 15.05376,1.43369 c -0.43011,2.29391 -1.57706,7.67025 -2.50896,12.04301 -0.9319,4.30107 -2.22222,10.60932 -2.93907,13.97849 -1.64874,8.45878 -1.8638,8.74552 -4.22939,4.73119 -5.59139,-9.60574 -7.8853,-21.07527 -4.80286,-24.73119 1.21863,-1.50537 14.62365,-10.75268 15.05376,-10.39426 0.14337,0.0717 -0.0717,2.07885 -0.57348,4.37276 z m 10.681,23.01075 c 2.00717,3.58423 3.65592,7.16846 3.65592,7.8853 0,0.71685 -1.29032,7.59857 -2.7957,15.26882 -1.57706,7.67025 -3.15412,15.48387 -3.51255,17.49104 -0.64516,3.79928 -0.86021,3.58423 -2.22222,-2.15054 -0.50179,-1.93548 -2.07885,-6.16487 -3.65591,-9.46236 l -2.72402,-5.87814 0.9319,-4.51613 c 1.36201,-6.23656 4.44445,-21.21863 5.01793,-24.08602 0.28673,-1.362 0.78853,-2.15054 1.07526,-1.79211 0.28674,0.28674 2.22223,3.58423 4.22939,7.24014 z m 60.788528,-4.58781 c -0.215054,0.57347 -0.788531,2.43727 -1.218638,4.1577 -1.290322,4.6595 -4.301075,7.52688 -4.301075,3.94265 0,-1.93548 4.014337,-9.10394 5.089605,-9.10394 0.430108,0 0.645162,0.43011 0.430108,1.00359 z m -45.017918,15.48387 c 3.36918,5.44802 4.80287,19.35483 2.50896,23.87096 -1.64874,3.15412 -14.62365,22.72401 -15.12544,22.72401 -0.21506,0 -0.14337,-0.50179 0.0717,-1.21863 0.71685,-1.8638 3.87097,-16.7742 6.23656,-29.24731 3.51254,-19.0681 3.65591,-19.71326 3.87097,-19.71326 0.14337,0 1.21863,1.57706 2.43727,3.58423 z m 8.05074,6.33019 c 6.320293,4.30186 5.58858,5.24542 4.207325,15.03181 -0.788531,4.6595 -6.021505,15.91398 -7.741935,16.48745 -0.50179,0.14337 -0.71685,-0.14336 -0.43011,-0.86021 0.64516,-1.64875 2.10722,-27.18986 0.86022,-29.82079 -3.93367,-8.29929 -1.73256,-4.36198 3.1045,-0.83826 z"
           id="path1"
           style="fill:#0b2816;fill-opacity:1;stroke:#0e361e;stroke-width:0.81713;stroke-dasharray:none;stroke-opacity:1"
           sodipodi:nodetypes="scscscsscsccccccccsccccscssccccccscccccccsccccccccccscsccscccscccccccccccccscscccccscccscccssscccccccccccccccsccccscsccscccscccccccccccsccccccccccccscccscccccccccccccccccsscscscssccccccsccsccsccccccccccccccccccscsccccccccsscccccccccsscccccccssscccccssscccscccccccccccccccccccccccsccccccsscscscscsccccscccccccccccccccscscccccccccscccccccccscsssscsccsssccccsc" /><path
           d="m -92.276612,259.2675 c -0.573477,0.35842 -2.50896,0.86021 -4.301075,1.14695 -1.792114,0.21506 -4.444443,0.78853 -5.878133,1.14695 l -2.72402,0.71685 2.36559,2.07885 c 1.29033,1.14696 4.086026,2.72402 6.236563,3.51255 2.365591,0.9319 5.232975,2.7957 7.311827,4.87455 4.229391,4.1577 4.444444,3.01075 0.501792,-2.7957 -2.724014,-4.01434 -2.939067,-4.58781 -2.580644,-7.81362 0.215053,-1.93548 0.358422,-3.51254 0.286738,-3.51254 -0.07169,0 -0.645161,0.28674 -1.218638,0.64516 z m -1.577061,4.30107 c -0.07168,1.07527 0.143369,2.36559 0.358423,2.72402 0.716846,1.21863 -5.01792,-0.71685 -6.451612,-2.07886 -1.075268,-1.14695 -1.003588,-1.21863 0.573477,-1.57706 2.939067,-0.64516 4.587813,-1.00358 5.089605,-1.07527 0.286738,0 0.430107,0.86022 0.430107,2.00717 z"
           id="path5"
           style="fill:#0b2816;fill-opacity:1;stroke:#0e361e;stroke-width:0.81713;stroke-dasharray:none;stroke-opacity:1" /><path
           d="m -183.10097,215.5399 c -5.01793,2.3656 -8.31542,4.58782 -10.82438,7.24015 -3.51254,3.72759 -6.45161,9.03225 -7.24014,13.26164 -1.50538,7.38352 -2.15054,9.39068 -5.37634,16.2724 -1.72043,3.65592 -3.87097,8.81721 -4.73118,11.46954 -0.9319,2.72401 -1.79212,4.87455 -1.93549,4.87455 -0.64516,0 0.57348,-5.23298 2.72402,-12.1147 1.72043,-5.37634 2.15053,-7.95698 2.07885,-12.90322 0,-6.30824 -1.29032,-13.04659 -2.58065,-13.4767 -1.00358,-0.35842 -7.09677,10.17921 -8.60215,14.69534 -1.93548,6.16487 -1.14695,12.68817 2.58065,20.93189 l 3.08244,6.81004 -0.78853,5.73477 c -0.5018,3.2258 -0.86022,9.17562 -0.9319,13.33333 l -0.0717,7.45519 -1.00358,-7.52688 c -1.21864,-8.74552 -3.15412,-15.05376 -5.87814,-19.21146 -5.73476,-8.53047 -7.59856,-10.89606 -8.10036,-10.39427 -0.78853,0.78853 -2.79569,12.5448 -2.79569,16.41577 0,3.79928 1.86379,9.03226 4.80286,13.26165 3.36918,4.80287 4.51613,6.0215 9.17563,9.03226 l 4.22939,2.86738 3.36917,10.32258 c 1.8638,5.66308 3.29749,10.39426 3.15413,10.53763 -0.0717,0.14337 -4.96864,-12.78018 -8.08708,-15.25885 -4.68739,-3.62847 -16.50818,-9.27978 -17.58232,-8.30457 -0.32754,0.29737 13.5635,6.81457 15.77789,9.10256 5.03037,3.5693 9.91586,16.61761 10.46498,17.32824 0.35843,0.5018 0.50179,1.07527 0.28674,1.29033 -0.78853,0.78853 -7.31183,-4.30108 -12.97491,-10.03584 -5.44803,-5.51972 -6.81003,-6.16488 -2.22222,-1.07527 3.08244,3.44086 11.82796,10.96774 14.33692,12.40143 l 2.15053,1.21864 -3.2258,-0.43011 c -6.37993,-0.78853 -9.67742,-2.43728 -14.26523,-6.81004 -2.3656,-2.36559 -5.16129,-5.80645 -6.09319,-7.74193 -2.65233,-5.30466 -4.87456,-12.25806 -4.30108,-13.90681 1.02423,-2.06964 0.14337,-1.36201 -0.50179,-1.14695 -1.93548,0.64516 0.0717,8.74552 3.7276,15.62724 4.44444,8.38709 11.89964,13.40501 22.93906,15.62724 l 5.73477,1.07526 3.44086,4.37276 c 4.22939,5.37635 6.9534,8.17205 10.32258,10.75269 11.86566,9.49251 -13.3875,0.76449 -14.12186,0.50179 -5.80645,-2.07885 -6.59498,-1.8638 -1.79212,0.50179 6.5233,3.15413 8.17204,3.7276 13.33333,4.73119 4.94624,1.00358 4.94624,1.21863 -0.21505,2.43727 -3.7276,0.86022 -11.32616,-0.57347 -16.70251,-3.2258 -3.58423,-1.72043 -7.8853,-5.44803 -11.18279,-9.53405 -0.78853,-1.00359 -1.8638,-2.36559 -2.36559,-3.01076 -0.9319,-1.14695 -0.78853,-1.14695 1.43369,-0.50179 1.29032,0.43011 5.80645,1.00359 9.96416,1.29033 6.30824,0.4301 8.24372,0.86021 11.6129,2.58064 2.8617,1.9881 5.67065,3.65591 8.53046,5.66308 1.07527,0.78853 2.15054,1.21864 2.36559,1.00359 0.57348,-0.57348 -9.82078,-7.59857 -13.62007,-9.24731 -2.00716,-0.9319 -6.23655,-1.64875 -12.18638,-2.07886 -5.01792,-0.43011 -9.7491,-1.07527 -10.46594,-1.50537 -2.50896,-1.29033 -1.50538,1.07526 2.50896,5.87813 10.46595,12.75986 22.00716,16.63082 37.13261,12.40143 l 4.08602,-1.14695 4.51613,2.7957 c 2.50896,1.50538 6.5233,3.7276 8.96057,4.87455 2.50896,1.07527 4.37276,2.15054 4.22939,2.36559 -0.21505,0.14337 -2.07885,-0.21505 -4.22939,-0.86021 -6.23656,-1.79212 -12.83154,-1.50538 -20.9319,1.00358 -3.87096,1.14695 -8.53046,2.15054 -10.46594,2.15054 -1.93549,0 -3.51255,0.28674 -3.51255,0.71684 0,1.21864 6.59498,5.5914 10.60932,7.16846 9.96416,3.79928 19.13978,3.51255 27.52688,-0.78853 2.58064,-1.29032 5.73476,-2.2939 7.31182,-2.36559 2.3656,-0.0717 3.08244,0.35842 5.16129,2.7957 3.08244,3.65591 5.01792,8.67383 5.66309,14.91039 0.71684,6.30824 2.07885,5.37635 1.64874,-1.07527 -0.43011,-5.80645 -4.01434,-13.33333 -8.45878,-17.77777 -1.79211,-1.79212 -5.94982,-4.87455 -9.31899,-6.81004 -7.24015,-4.22939 -7.52689,-4.37276 -11.82796,-7.16846 -1.79211,-1.21863 -5.66308,-3.72759 -8.67383,-5.66308 -2.93907,-1.8638 -5.73477,-4.08602 -6.30825,-4.80286 -0.50179,-0.71685 -8.23684,-8.53141 -11.03942,-12.47312 -1.8638,-2.72402 -3.7276,-5.44803 -4.22939,-5.94982 -1.72043,-1.79212 -5.16129,-9.89247 -7.31183,-17.13262 -2.29391,-7.8853 -2.94328,-14.96275 -2.43728,-15.7706 1.68601,-1.82664 6.53974,-11.11469 8.3871,-13.83513 4.94624,-7.16846 5.23297,-7.81362 3.36918,-6.09319 -0.9319,0.78853 -3.22581,3.79929 -5.23298,6.81004 -4.51613,6.73835 -4.44444,6.73835 -3.87097,3.01075 1.00359,-6.88172 5.16129,-12.61649 12.25807,-16.98924 6.0215,-3.79929 7.02509,-4.01434 6.37992,-1.29033 -1.64874,7.59857 -5.43763,13.55339 -10.67061,18.42794 -1.362,1.29032 -12.22798,11.26676 -11.08103,10.69329 2.72402,-1.29032 18.52584,-16.36137 20.38964,-20.51908 1.8638,-4.08602 3.36917,-13.18996 2.07885,-12.5448 -0.35842,0.14337 -2.43728,1.14695 -4.58781,2.15054 -5.16129,2.36559 -10.68101,7.38351 -13.0466,11.82795 -1.00358,1.8638 -2.43727,5.87814 -3.08243,8.81721 -1.57706,6.9534 -1.8638,7.81362 -2.29391,6.59498 -0.50179,-1.36201 1.07527,-14.83871 2.43728,-20.57348 0.64516,-2.79569 1.79211,-5.73476 2.58064,-6.59498 0.78853,-0.86021 4.01434,-2.43727 7.24014,-3.51254 7.09678,-2.36559 12.83154,-5.51971 16.20072,-8.88889 2.43727,-2.43728 6.88172,-9.82079 6.30824,-10.39426 -0.14337,-0.21506 -2.86738,0.0717 -6.0215,0.57347 -8.3871,1.36201 -13.9785,5.01792 -19.78495,13.11828 -1.21864,1.72043 -2.36559,3.01075 -2.50896,2.86738 -0.50179,-0.50179 4.6595,-11.97132 6.02151,-13.4767 0.64516,-0.71684 4.22939,-3.44086 7.95699,-6.09319 7.45519,-5.30465 10.82437,-8.8172 13.54838,-14.19354 1.50538,-2.93907 4.51613,-10.68101 4.51613,-11.6129 0,-0.78854 -3.08244,0.0717 -6.9534,1.86379 z m 5.51971,-0.35842 c 0,1.07527 -4.87455,11.39785 -6.5233,13.76344 -2.36559,3.51255 -14.98208,13.69176 -14.98208,12.11469 0,-0.71684 3.79929,-6.37992 7.38352,-10.96774 1.93548,-2.50896 3.36917,-4.65949 3.2258,-4.80286 -0.57347,-0.57348 -7.45519,7.09677 -9.46236,10.60931 -1.14696,1.8638 -2.15054,3.2975 -2.36559,3.15413 -0.14337,-0.21506 0.21505,-2.22223 0.9319,-4.51613 1.29032,-4.51613 3.87096,-8.74552 7.24014,-11.89964 3.15412,-3.01075 14.55197,-8.81721 14.55197,-7.4552 z m -31.75627,29.82079 c -0.21505,5.01792 -0.86022,8.45878 -2.36559,13.04659 -1.14696,3.51254 -2.29391,6.30824 -2.50896,6.30824 -0.9319,0 -1.29033,-8.45878 -0.57348,-13.4767 0.9319,-6.66666 0.35842,-7.45519 -0.78853,-1.21864 -0.9319,5.01792 -0.50179,13.11828 0.78853,15.55556 0.43011,0.78853 0.57348,1.57706 0.35842,1.79211 -0.21505,0.28674 -1.29032,-1.43369 -2.36559,-3.79928 -1.72043,-3.7276 -2.00717,-5.08961 -2.00717,-11.39785 0,-6.23656 0.28674,-7.67025 1.93549,-11.25448 1.07527,-2.2939 2.7957,-5.30466 3.94265,-6.73835 l 1.93548,-2.65233 1.00359,3.51255 c 0.57347,2.22222 0.78853,6.09319 0.64516,10.32258 z m 26.52329,1.21863 c -1.64874,3.08244 -5.73476,7.59857 -9.03225,9.82079 -2.93907,2.00717 -14.33692,6.5233 -14.9104,5.87814 1.0134,-11.76741 18.18045,-18.7248 24.73118,-17.99283 0.2015,0.0225 -0.21505,1.14695 -0.78853,2.2939 z m -41.79211,24.51613 c 4.15771,6.37993 5.37635,9.82079 6.16488,17.2043 0.35842,3.36918 0.86021,6.9534 1.07527,7.95699 l 0.50179,1.79211 -1.43369,-1.79211 c -3.15413,-3.79928 -6.09319,-9.46237 -7.38352,-14.12186 -1.21863,-4.30108 -1.29032,-4.51613 -1.00358,-1.64875 0.50179,5.5914 3.79928,14.55197 5.87814,16.2724 1.07526,0.86022 1.79211,1.79211 1.50537,2.00717 -0.86021,0.86021 -7.67025,-6.23656 -9.96415,-10.53763 -2.29391,-4.22939 -2.43728,-4.94624 -2.43728,-11.32617 0.0717,-7.81362 1.29032,-12.75985 2.93907,-11.39785 0.57347,0.43011 2.43727,2.93907 4.1577,5.5914 z m 60.64516,95.48386 c 2.15054,0.71685 4.37276,1.79212 4.87455,2.36559 0.86021,0.86022 0.28674,0.9319 -3.87097,0.71685 l -4.94623,-0.21506 5.30466,0.64517 c 6.09318,0.78853 6.81003,1.14695 3.94265,1.86379 -1.14696,0.28674 -4.30108,1.57707 -7.09678,2.93907 -4.37276,2.07886 -5.66308,2.36559 -10.75268,2.36559 -6.66667,0 -15.05377,-2.2939 -20.07169,-5.51971 -3.44086,-2.15054 -4.1577,-3.15412 -1.86379,-2.58064 0.78853,0.21505 4.73118,-0.64516 8.8172,-1.79212 4.08602,-1.21864 8.53046,-2.36559 9.89247,-2.50896 4.22939,-0.50179 11.6129,0.28674 15.77061,1.72043 z"
           id="path11"
           style="fill:#0b2816;fill-opacity:1;stroke:#0e361e;stroke-width:0.81713;stroke-dasharray:none;stroke-opacity:1"
           sodipodi:nodetypes="sccccscccccccccccssccccccsccsccccccccscccccccccccccccsscccccccccccssccccccscccccccccccccccccccccccssscccscscsssscscsccccsccscccccsccccccccscccccccccccccccccccscsccccc" /><path
           d="m -198.94327,290.73703 c -2.00717,2.07885 -4.73118,5.87813 -6.0215,8.53046 -2.22222,4.58782 -2.36559,5.30466 -2.36559,12.40144 0,6.9534 0.14337,7.8853 2.2939,12.18637 1.79212,3.79929 2.36559,4.37276 2.72402,3.22581 0.28674,-0.78853 2.07885,-4.6595 4.01433,-8.60215 5.01792,-10.32258 6.02151,-14.91039 5.08961,-22.72401 -1.14695,-9.24731 -1.43369,-9.46237 -5.73477,-5.01792 z m 4.51613,6.45161 c 0.78853,7.31183 -1.21864,14.33692 -6.45161,23.08244 l -1.93548,3.2258 0.4301,-6.09319 c 0.21506,-3.36917 0.9319,-7.8853 1.57706,-10.03584 2.07886,-7.31183 2.27234,-7.05824 0.76697,-5.33781 -1.72501,2.86657 -1.90279,2.91041 -2.4874,4.40591 -0.78853,1.43369 -1.72043,8.74552 -1.72043,12.90323 0,2.50896 -0.0717,2.58064 -1.00358,1.29032 -1.64875,-2.22222 -1.36201,-13.0466 0.57348,-18.06452 1.8638,-5.16129 3.01075,-7.02508 6.23656,-10.46594 3.01075,-3.15413 3.29749,-2.86739 4.01433,5.0896 z"
           id="path15-3"
           style="fill:#0b2816;fill-opacity:1;stroke:#0e361e;stroke-width:0.81713;stroke-dasharray:none;stroke-opacity:1"
           sodipodi:nodetypes="ccsccccccccccccscccc" /><path
           d="m -197.8996,254.23741 c -2.35551,1.28684 -11.12244,7.98083 -9.77083,7.54784 1.19135,-0.43487 11.14774,-7.40345 11.41208,-8.07363 0.13123,-0.25494 -0.64111,-0.008 -1.64125,0.52579 z"
           id="path17-6"
           style="fill:#0b2816;fill-opacity:1;stroke:#0e361e;stroke-width:0.81713;stroke-dasharray:none;stroke-opacity:1" /><path
           d="m -190.34112,313.60441 c -2.72401,6.66667 -3.15412,8.88889 -2.86738,15.19713 0.28674,6.5233 2.43728,12.61649 5.51971,15.98566 2.15054,2.22222 1.8638,1.36201 -1.00358,-3.36917 -3.36918,-5.5914 -4.30108,-10.68101 -3.36918,-17.56273 0.43011,-2.93906 1.36201,-6.81003 2.15054,-8.45878 l 1.36201,-3.08243 2.22222,3.44086 c 5.66308,8.88888 7.09677,14.91039 5.80645,24.44444 l -0.9319,6.88172 -1.93548,-4.15771 c -1.72043,-3.65591 -2.7957,-8.17204 -3.7276,-15.84229 -0.14337,-1.21864 -0.35842,-0.14337 -0.43011,2.36559 -0.0689,5.67572 1.31981,16.20108 4.22941,18.92473 l 2.50896,2.29391 0.50179,-3.87097 c 0.28674,-2.15054 0.71685,-6.88172 1.00359,-10.39426 0.35842,-5.80645 0.21505,-6.95341 -1.43369,-11.61291 -1.93549,-5.16129 -6.81004,-14.55197 -7.67025,-14.55197 -0.28674,0 -1.14696,1.50538 -1.93549,3.36918 z"
           id="path19-9"
           style="fill:#0b2816;fill-opacity:1;stroke:#0e361e;stroke-width:0.81713;stroke-dasharray:none;stroke-opacity:1"
           sodipodi:nodetypes="scccccccccccccccccsss" /><path
           d="m -173.85366,336.18505 c 0.21505,6.95341 0.4301,7.95699 2.86738,12.90323 1.93548,3.79928 3.87097,6.37992 6.9534,9.24731 5.94982,5.37634 9.39068,8.10036 9.82079,7.67025 0.50179,-0.50179 -10.60932,-21.00358 -12.25806,-22.65233 -1.50538,-1.50538 3.51254,8.8172 6.81003,13.97849 2.65233,4.22939 2.72402,5.01792 0.14337,3.15412 -3.44086,-2.43727 -7.31183,-6.66666 -9.46236,-10.39426 -2.22222,-3.87097 -3.79929,-11.25448 -3.44086,-16.12903 l 0.21505,-3.08244 4.6595,3.58423 c 6.88172,5.16129 10.53763,11.1828 12.5448,20.43011 0.50179,2.43727 1.00358,3.58423 1.00358,2.58064 0.0717,-2.15053 -2.43727,-10.681 -4.01433,-13.83512 -1.64875,-3.22581 -7.31183,-8.88889 -11.97133,-12.04301 l -4.1577,-2.86738 z"
           id="path20-1"
           style="fill:#0b2816;fill-opacity:1;stroke:#0e361e;stroke-width:0.81713;stroke-dasharray:none;stroke-opacity:1" /></g><text
         xml:space="preserve"
         style="font-size:75px;line-height:1;text-align:start;letter-spacing:5.25px;writing-mode:lr-tb;direction:ltr;text-anchor:start;fill:#0b2816;fill-opacity:1;stroke:none;stroke-width:0.999997;stroke-linecap:square;stroke-opacity:1;paint-order:markers fill stroke"
         x="428.08862"
         y="304.80237"
         id="text1"><tspan
           sodipodi:role="line"
           id="tspan1"
           style="font-style:normal;font-variant:normal;font-weight:normal;font-stretch:normal;font-size:75px;font-family:'Concert One';-inkscape-font-specification:'Concert One';letter-spacing:5.25px;fill:#0b2816;fill-opacity:1;stroke:none;stroke-width:1;stroke-opacity:1"
           x="428.08862"
           y="304.80237">GRAZIADEI</tspan></text><text
         xml:space="preserve"
         style="font-size:30px;line-height:1;text-align:start;letter-spacing:9.9px;writing-mode:lr-tb;direction:ltr;text-anchor:start;fill:#0b2816;fill-opacity:1;stroke:none;stroke-width:0.999997;stroke-linecap:square;paint-order:markers fill stroke"
         x="430.74878"
         y="346.64294"
         id="text2"><tspan
           style="font-style:normal;font-variant:normal;font-weight:normal;font-stretch:normal;font-size:30px;line-height:1;font-family:'Concert One';-inkscape-font-specification:'Concert One';letter-spacing:9.9px;fill:#0b2816;fill-opacity:1;stroke:none;stroke-width:1"
           x="430.74878"
           y="346.64294"
           id="tspan3"
           sodipodi:role="line">EMPRENDIMENTOS</tspan></text><text
         xml:space="preserve"
         style="font-style:normal;font-variant:normal;font-weight:normal;font-stretch:normal;font-size:75px;line-height:1;font-family:'Concert One';-inkscape-font-specification:'Concert One';text-align:start;letter-spacing:9.9px;writing-mode:lr-tb;direction:ltr;text-anchor:start;fill:#0b2816;fill-opacity:1;stroke:none;stroke-width:12;stroke-linecap:square;stroke-linejoin:round;stroke-dasharray:none;stroke-opacity:1;paint-order:markers fill stroke"
         x="625.25916"
         y="206.82874"
         id="text30"><tspan
           sodipodi:role="line"
           id="tspan30"
           style="fill:#0b2816;fill-opacity:1;stroke:none;stroke-width:12"
           x="625.25916"
           y="206.82874"></tspan></text></g><text
       xml:space="preserve"
       style="font-size:75px;line-height:1;text-align:start;writing-mode:lr-tb;direction:ltr;text-anchor:start;fill:#000000;stroke:#000000;stroke-width:0.999997;stroke-linecap:square;paint-order:markers fill stroke"
       x="369"
       y="388.5"
       id="text4"><tspan
         sodipodi:role="line"
         id="tspan4"
         style="stroke-width:1"
         x="369"
         y="388.5" /></text><text
       xml:space="preserve"
       style="font-style:normal;font-variant:normal;font-weight:normal;font-stretch:normal;font-size:82.5px;line-height:1;font-family:'Concert One';-inkscape-font-specification:'Concert One';text-align:start;letter-spacing:6px;writing-mode:lr-tb;direction:ltr;text-anchor:start;fill:#000000;stroke:#000000;stroke-width:0.999997;stroke-linecap:square;paint-order:markers fill stroke"
       x="-270"
       y="112.5"
       id="text5"><tspan
         sodipodi:role="line"
         id="tspan5"
         style="stroke-width:1"
         x="-270"
         y="112.5" /></text><g
       id="g28"
       style="fill:#114124;fill-opacity:1;stroke:#0e361e;stroke-opacity:1"><path
         d="m 276.8335,217.51172 a 4.7523353,4.7523353 0 0 0 -4.75196,4.75195 v 18.23584 h 9.50391 v -13.48388 h 209.6792 l 9.5039,-9.50391 z m 322.39746,0 9.5039,9.50391 h 209.6792 v 13.48388 h 9.50391 v -18.23584 a 4.7523353,4.7523353 0 0 0 -4.75195,-4.75195 z"
         style="baseline-shift:baseline;display:inline;overflow:visible;opacity:1;vector-effect:none;fill:#114124;fill-opacity:1;stroke:#0e361e;stroke-linecap:square;stroke-linejoin:round;stroke-opacity:1;paint-order:markers fill stroke;enable-background:accumulate;stop-color:#000000;stop-opacity:1"
         id="path27" /><path
         d="m 272.08154,359.50049 v 18.23584 a 4.7523353,4.7523353 0 0 0 4.75196,4.75195 h 223.93505 l -9.5039,-9.5039 h -209.6792 v -13.48389 z m 546.33252,0 v 13.48389 h -209.6792 l -9.5039,9.5039 h 223.93506 a 4.7523353,4.7523353 0 0 0 4.75195,-4.75195 v -18.23584 z"
         style="baseline-shift:baseline;display:inline;overflow:visible;opacity:1;vector-effect:none;fill:#114124;fill-opacity:1;stroke:#0e361e;stroke-linecap:square;stroke-linejoin:round;stroke-opacity:1;paint-order:markers fill stroke;enable-background:accumulate;stop-color:#000000;stop-opacity:1"
         id="path26" /><path
         d="m 550.00049,170.24854 a 4.7524951,4.7524951 0 0 0 -3.36035,1.3916 l -68.85938,68.85937 h 13.43994 l 58.77979,-58.77832 58.77978,58.77832 h 13.43848 l -68.85791,-68.85937 a 4.7524951,4.7524951 0 0 0 -3.36035,-1.3916 z m -72.21973,189.25195 68.85938,68.85937 a 4.7524951,4.7524951 0 0 0 6.7207,0 l 68.85791,-68.85937 h -13.43848 l -58.77978,58.77832 -58.77979,-58.77832 z"
         style="baseline-shift:baseline;display:inline;overflow:visible;opacity:1;vector-effect:none;fill:#114124;fill-opacity:1;stroke:#0e361e;stroke-linecap:square;stroke-linejoin:round;stroke-opacity:1;paint-order:markers fill stroke;enable-background:accumulate;stop-color:#000000;stop-opacity:1"
         id="path25" /></g></g></svg>
