<?xml version="1.0" encoding="UTF-8" standalone="no"?>
<svg
   version="1.0"
   width="1536pt"
   height="500pt"
   viewBox="0 0 1536 500"
   preserveAspectRatio="xMidYMid"
   id="svg32"
   sodipodi:docname="loteamento.svg"
   inkscape:version="1.4.2 (1:1.4.2+202505120738+ebf0e940d0)"
   xmlns:inkscape="http://www.inkscape.org/namespaces/inkscape"
   xmlns:sodipodi="http://sodipodi.sourceforge.net/DTD/sodipodi-0.dtd"
   xmlns="http://www.w3.org/2000/svg"
   xmlns:svg="http://www.w3.org/2000/svg">
  <defs
     id="defs32" />
  <sodipodi:namedview
     id="namedview32"
     pagecolor="#ffffff"
     bordercolor="#000000"
     borderopacity="0.25"
     inkscape:showpageshadow="2"
     inkscape:pageopacity="0.0"
     inkscape:pagecheckerboard="0"
     inkscape:deskcolor="#d1d1d1"
     inkscape:document-units="pt"
     inkscape:zoom="0.33105469"
     inkscape:cx="990.77286"
     inkscape:cy="407.78761"
     inkscape:window-width="1366"
     inkscape:window-height="657"
     inkscape:window-x="0"
     inkscape:window-y="27"
     inkscape:window-maximized="1"
     inkscape:current-layer="svg32" />
  <g
     id="g37"
     transform="translate(4.2049477,-32.044247)">
    <g
       id="g36"
       style="fill:#163b40;fill-opacity:1"
       transform="translate(0,-273)">
      <path
         d="m 68.215021,437.8712 c -1.467554,1.46755 -1.467554,2.42146 -1.467554,63.17819 v 61.71063 l -2.348086,-0.6604 c -1.320798,-0.29351 -5.356571,-0.58702 -9.025455,-0.51364 -5.063061,0 -7.411147,0.36689 -10.052743,1.54093 -4.842928,2.27471 -9.172211,6.38386 -11.813808,11.5203 l -2.348086,4.47604 v 36.32195 36.32196 l 2.421464,4.98968 c 3.008485,6.09035 8.438434,11.52029 14.382026,14.4554 l 4.549417,2.27471 205.751034,0.14676 c 166.12708,0.14675 206.63156,0 210.08031,-0.73378 10.56639,-2.34809 18.93145,-9.46572 22.52695,-19.0782 1.54093,-4.10915 1.54093,-5.20981 1.54093,-36.8356 -0.0734,-17.97753 -0.14675,-32.72645 -0.29351,-32.79982 -0.0734,-0.14676 -3.00848,-0.36689 -6.38386,-0.6604 -3.44875,-0.22014 -15.62944,-1.10067 -27.14974,-1.90782 -11.5203,-0.80716 -30.81863,-1.68769 -42.92595,-1.90782 -33.09333,-0.58702 -45.93443,1.17404 -82.77003,11.59367 -11.59367,3.302 -21.27952,5.79684 -21.57304,5.57671 -0.22013,-0.29351 -0.58702,-2.78836 -0.80715,-5.65009 l -0.36689,-5.13643 3.302,-3.52213 c 1.83444,-1.90782 4.18253,-4.84293 5.28319,-6.53062 1.83444,-2.78835 2.20133,-2.9351 6.53061,-3.37537 10.41964,-1.02729 16.87687,-4.62279 20.69251,-11.5203 1.9812,-3.66888 2.20133,-4.69617 2.20133,-10.63976 -0.0734,-5.79684 -0.29351,-7.19101 -2.20133,-11.00665 -1.17404,-2.49485 -3.96239,-6.23711 -6.38386,-8.65857 l -4.2559,-4.32928 v -4.47604 c 0,-8.8787 -3.52213,-17.24376 -10.12612,-24.14126 -4.76955,-5.06306 -8.73195,-7.48453 -14.60216,-9.02546 -18.12429,-4.84292 -37.86289,14.1619 -35.95507,34.63427 0.44027,4.40266 0.36689,4.62279 -1.68769,6.09035 -1.17404,0.80715 -3.22861,3.15524 -4.54941,5.20981 -2.12795,3.302 -2.49484,3.59551 -3.15524,2.42147 -1.76107,-3.08187 -6.45724,-7.48453 -9.97937,-9.46572 -10.12612,-5.50333 -21.71979,-2.05458 -28.54392,8.43843 -9.02545,14.08852 -2.86173,34.56089 11.66705,38.59666 l 4.32929,1.24742 0.29351,3.22862 0.22013,3.22862 -2.56822,-0.44027 c -4.84292,-0.80715 -17.24375,-1.76106 -22.16006,-1.83444 h -4.98968 v -25.3153 -25.3153 h 1.68769 c 2.20133,0 3.44875,-1.3208 3.44875,-3.74226 0,-1.46756 -2.34809,-4.54942 -9.31897,-12.47421 -5.13644,-5.79684 -11.81381,-13.13461 -14.89567,-16.28985 l -5.5767,-5.65008 h -21.42629 -21.42628 v -26.04908 c 0,-25.09517 -0.0734,-26.12245 -1.46756,-27.51663 -1.39417,-1.39418 -2.42146,-1.46755 -38.15639,-1.46755 -35.734936,0 -36.762223,0.0734 -38.156399,1.46755 z m 68.461379,74.3316 c 0.0734,36.1752 0,65.81978 -0.22013,65.81978 -0.29351,0 -0.73378,-0.29351 -1.10067,-0.6604 -2.9351,-2.64159 -14.96904,-3.81564 -20.17886,-2.05457 -2.42146,0.88053 -2.78835,0.73377 -5.72346,-1.46756 -7.77803,-5.87021 -22.233439,-7.19101 -32.432937,-2.86173 -0.95391,0.36689 -1.100665,-6.75074 -0.880532,-62.29765 l 0.146755,-62.73792 30.084854,0.14675 30.08485,0.22013 z m 48.94292,-9.46572 c 1.10066,0.88053 5.72346,5.65008 10.1995,10.56638 l 8.14492,8.8787 v 29.05757 28.98418 h -5.06306 c -4.91631,0 -17.31713,1.02729 -22.96722,1.90782 l -2.78835,0.44027 v -14.38203 -14.4554 l -7.85141,0.22013 -7.92479,0.22013 -0.36689,15.40932 -0.36689,15.33593 -4.40266,0.95391 c -2.42146,0.51365 -4.84293,0.88054 -5.28319,0.95391 -0.73378,0 -0.95391,-9.02545 -0.95391,-42.92594 v -42.92595 h 18.78469 c 18.63793,0 18.78468,0 20.83926,1.76107 z m 82.40314,61.34374 c 2.93511,4.91631 12.54758,10.27288 18.49118,10.27288 1.10066,0 3.5955,1.98119 7.48452,6.01697 l 5.87022,5.94359 0.51364,5.87021 c 0.29351,3.22862 0.36689,5.9436 0.22013,6.09035 -0.14675,0.14676 -4.76955,-1.39417 -10.34625,-3.44875 -11.22679,-4.10915 -25.09517,-8.07154 -33.24009,-9.46572 l -5.35657,-0.95391 v -4.54942 -4.54941 l 3.74226,-1.68769 c 4.10915,-1.9812 7.85141,-5.72346 9.39234,-9.39234 1.24742,-2.93511 1.61431,-2.93511 3.22862,-0.14676 z m 38.44991,-1.3208 c 1.39417,1.76107 1.76106,12.1807 0.58702,14.96905 -1.10067,2.71497 -2.12795,3.15524 -2.86173,1.3208 -0.58702,-1.54093 -0.58702,-16.06971 0.0734,-16.65674 0.73377,-0.73377 1.39417,-0.58702 2.20133,0.36689 z m 148.80994,25.53544 c 24.21464,0.95391 28.25041,1.3208 28.25041,2.64159 0,0.73378 -0.95391,1.02729 -3.08186,1.02729 -5.35657,0 -33.46022,1.39418 -43.87986,2.20133 -25.38867,1.9812 -51.65789,6.31048 -73.37768,12.25408 -19.66522,5.28319 -46.88834,16.36322 -64.1321,25.90232 -4.32928,2.42146 -8.36506,4.40266 -8.95208,4.40266 -1.3208,0 -18.4178,-6.31048 -24.87503,-9.24559 l -4.40266,-1.90782 6.2371,-1.61431 c 3.44875,-0.95391 18.78469,-5.79683 34.12062,-10.93327 39.11031,-12.91448 47.76888,-15.70283 58.99566,-18.56456 10.71315,-2.78835 24.43477,-5.13644 35.29467,-6.09035 10.05274,-0.88053 39.33044,-0.95391 59.80281,-0.0734 z m -221.60061,2.27471 c 15.55607,1.76106 27.44326,4.40266 45.12728,9.97936 10.34625,3.22862 13.50149,4.62279 10.63976,4.62279 -0.73377,0 -5.50332,1.3208 -10.56638,2.93511 -20.25224,6.31048 -31.03876,9.5391 -32.28618,9.5391 -0.6604,0 -5.87022,-2.12795 -11.44692,-4.69617 -18.27105,-8.36506 -41.97204,-15.62945 -60.16971,-18.4178 -12.62096,-1.9812 -12.69434,-2.20133 -0.29351,-3.22862 25.60882,-2.27471 43.51297,-2.42146 58.99566,-0.73377 z m -82.18301,11.59367 c 20.47238,3.08186 35.22129,7.19101 46.59483,13.06123 13.79501,7.04426 20.91265,17.17038 18.4178,26.34259 -1.02728,3.74226 -5.35657,10.85989 -9.75923,15.84958 -1.83444,2.12795 -3.96239,4.69617 -4.76955,5.5767 -1.3208,1.61431 -1.46755,1.68769 -18.78469,1.46756 l -17.39051,-0.22014 3.22862,-5.20981 c 5.94359,-9.5391 6.8975,-15.04243 3.66889,-21.42629 -6.89751,-13.795 -35.95507,-24.80166 -75.872532,-28.69067 -8.071545,-0.80716 -39.110306,-2.27471 -48.209139,-2.27471 h -5.356572 v -2.56822 -2.56822 l 7.924791,-0.0734 c 4.329283,-0.0734 13.134605,-0.36689 19.591842,-0.6604 6.457236,-0.29351 24.948413,-0.44026 41.0915,-0.36688 25.60882,0.14675 30.67188,0.36688 39.62395,1.76106 z m 331.30026,1.02729 v 3.22862 l -11.59368,0.44026 c -30.15823,1.24742 -58.92228,5.79684 -80.20181,12.69434 -21.71979,6.97088 -33.90049,13.06123 -49.23643,24.72828 l -8.80532,6.67737 -3.44875,-0.95391 c -6.45724,-1.68769 -26.12246,-7.5579 -27.14974,-8.14492 -1.24742,-0.6604 7.04425,-4.98968 24.50814,-12.8411 20.76589,-9.31896 50.41047,-17.97753 76.9732,-22.38019 20.17886,-3.37537 51.87802,-6.31048 70.00231,-6.53062 l 8.95208,-0.0734 z m -262.17848,13.28136 c 6.82413,2.93511 18.19767,8.51181 37.64276,18.49118 20.03211,10.27287 31.5524,14.96904 51.87802,21.13277 10.49301,3.08186 22.67371,6.31048 29.57121,7.70466 2.05457,0.44026 -20.03211,0.6604 -60.02295,0.73377 -50.48385,0.0734 -63.25156,-0.14675 -62.8113,-0.88053 0.29351,-0.44027 2.34809,-3.44875 4.54942,-6.60399 9.5391,-13.72163 8.65857,-25.60881 -2.86173,-38.1564 -2.42146,-2.71497 -4.32928,-4.9163 -4.10915,-4.9163 0.22013,0 3.00848,1.10066 6.16372,2.49484 z m 262.91225,0.29351 v 2.86173 l -9.31896,1.24742 c -36.24858,4.98968 -73.23093,19.29833 -88.71363,34.34076 l -3.74226,3.5955 -9.46572,-1.17404 c -15.92296,-1.90782 -25.9757,-3.52213 -25.9757,-4.18253 0,-1.61431 13.86838,-10.71314 23.84775,-15.55607 23.04059,-11.37354 47.98901,-17.97753 81.96287,-21.64641 14.89567,-1.68769 18.34443,-1.9812 26.12246,-2.12796 l 5.28319,-0.14675 z m -392.203728,1.9812 c 33.900488,3.5955 56.500818,10.41963 66.113298,19.95873 6.60399,6.67737 4.84292,12.10732 -7.26439,22.30681 l -4.25591,3.59551 h -11.74043 c -9.97936,0 -11.66705,-0.14675 -11.66705,-1.10066 0,-1.83445 -4.03577,-9.31897 -7.26439,-13.35474 -7.04426,-8.95208 -22.673708,-16.80349 -42.632438,-21.42629 -5.356571,-1.24742 -12.547584,-2.34808 -26.195834,-4.18253 l -3.155241,-0.36688 v -3.74227 -3.74226 l 18.564555,0.44027 c 10.126121,0.22013 23.48086,0.95391 29.49783,1.61431 z m 391.469958,14.52878 v 6.75075 l -6.38386,1.39417 c -14.30865,2.93511 -27.51663,8.07155 -40.94475,15.92296 l -7.85141,4.54942 -13.72163,-0.51365 c -7.48452,-0.29351 -14.96905,-0.80715 -16.58336,-1.10066 l -2.93511,-0.51365 4.69618,-3.44875 c 14.89567,-11.08003 40.79799,-20.98602 71.61662,-27.36987 6.45723,-1.3208 11.81381,-2.42147 11.96056,-2.42147 0.0734,-0.0734 0.14676,3.00849 0.14676,6.75075 z m -430.873776,0.14675 c 18.344422,2.6416 31.038762,6.82413 41.605148,13.64825 7.484528,4.91631 11.740428,8.95208 13.868388,13.35474 l 1.98119,3.81564 -12.987848,0.22014 -12.914473,0.14675 -4.476038,-4.18253 c -7.191014,-6.60399 -16.069714,-9.97936 -30.745251,-11.59367 -2.348086,-0.29351 -4.255906,-0.51365 -4.255906,-0.58702 -0.513643,-2.86173 -0.733777,-15.92296 -0.29351,-15.92296 0.366888,0 4.10915,0.51364 8.2183,1.10066 z"
         id="path1"
         style="fill:#163b40;fill-opacity:1;stroke:none;stroke-width:0.0733777" />
      <path
         d="m 88.760773,469.79049 v 9.24559 l 6.090348,-0.22013 6.016969,-0.22013 0.22013,-9.02546 0.22014,-8.95208 h -6.310484 -6.237103 z"
         id="path2"
         style="fill:#163b40;fill-opacity:1;stroke:none;stroke-width:0.0733777" />
      <path
         d="m 111.80137,461.57219 c -0.14676,0.51365 -0.22014,4.54942 -0.14676,9.02546 l 0.22013,7.99817 h 6.23711 6.2371 l -0.14675,-8.43844 c -0.0734,-4.62279 -0.14676,-8.65856 -0.14676,-9.02545 -0.0734,-0.29351 -2.71497,-0.51365 -5.94359,-0.51365 -4.18253,0 -6.01697,0.29351 -6.31048,0.95391 z"
         id="path3"
         style="fill:#163b40;fill-opacity:1;stroke:none;stroke-width:0.0733777" />
      <path
         d="m 88.907528,504.05787 0.220133,9.02546 h 5.870215 5.870214 l 0.22013,-9.02546 0.22014,-8.95207 h -6.310484 -6.310481 z"
         id="path4"
         style="fill:#163b40;fill-opacity:1;stroke:none;stroke-width:0.0733777" />
      <path
         d="m 111.80137,496.05971 c -0.14676,0.51364 -0.22014,4.54941 -0.14676,9.02545 l 0.22013,7.99817 h 6.16373 6.2371 l -0.0734,-4.76955 c 0,-2.6416 -0.0734,-6.67737 -0.14676,-9.02546 l -0.0734,-4.18252 h -5.87021 c -4.18253,0 -6.01697,0.29351 -6.31048,0.95391 z"
         id="path5"
         style="fill:#163b40;fill-opacity:1;stroke:none;stroke-width:0.0733777" />
      <path
         d="m 89.054284,528.78615 c -0.146756,0.14676 -0.293511,4.25591 -0.293511,9.02546 v 8.65857 h 6.237103 6.310484 l -0.22014,-8.95208 -0.22013,-8.8787 -5.723459,-0.0734 c -3.15524,-0.0734 -5.943592,0.0734 -6.090347,0.22013 z"
         id="path6"
         style="fill:#163b40;fill-opacity:1;stroke:none;stroke-width:0.0733777" />
      <path
         d="m 112.24163,529.15304 c -0.36689,0.36689 -0.73377,4.47604 -0.73377,9.02546 v 8.36505 l 6.38385,-0.22013 6.45724,-0.22013 0.0734,-8.29168 c 0.0734,-4.6228 -0.22013,-8.43843 -0.58702,-8.65857 -1.24742,-0.80715 -10.8599,-0.73377 -11.59368,0 z"
         id="path7"
         style="fill:#163b40;fill-opacity:1;stroke:none;stroke-width:0.0733777" />
      <path
         d="m 157.51566,524.23674 c -0.73377,0.6604 -0.58702,15.1158 0.14676,16.21647 0.36689,0.6604 1.83444,0.88053 4.54942,0.73377 l 3.96239,-0.22013 0.22013,-8.65857 0.22014,-8.58519 h -4.32929 c -2.34808,0 -4.54941,0.22014 -4.76955,0.51365 z"
         id="path8"
         style="fill:#163b40;fill-opacity:1;stroke:none;stroke-width:0.0733777" />
      <path
         d="m 299.73242,557.27953 c -0.73377,1.00223 -0.58702,22.93986 0.14676,24.61025 0.36689,1.00223 1.83444,1.3363 4.54942,1.11357 l 3.96239,-0.33407 0.22013,-13.14032 0.22014,-13.02895 h -4.32929 c -2.34808,0 -4.54941,0.33409 -4.76955,0.77952 z"
         id="path8-6"
         style="fill:#163b40;fill-opacity:1;stroke:none;stroke-width:0.0903949" />
      <path
         d="m 176.814,532.52842 v 8.80532 h 4.32928 c 2.78835,0 4.62279,-0.36689 5.13644,-1.02729 0.58702,-0.6604 0.80715,-3.66888 0.6604,-8.58519 l -0.22014,-7.63128 -4.9163,-0.22013 -4.98968,-0.22013 z"
         id="path9"
         style="fill:#163b40;fill-opacity:1;stroke:none;stroke-width:0.0733777" />
      <path
         d="m 288.34808,441.68684 c -8.43844,1.24742 -16.28985,6.82413 -19.7386,14.01514 -1.90782,3.96239 -3.37537,11.44692 -2.42146,12.40083 0.36689,0.36689 2.12795,0.58702 3.88901,0.44026 2.78836,-0.22013 3.22862,-0.44026 3.44876,-2.05457 0.58702,-4.54942 2.56822,-8.80532 5.28319,-11.30017 6.31048,-5.65008 12.84109,-7.33776 20.25224,-5.20981 5.79684,1.68769 10.93328,6.82412 13.42812,13.57487 1.02728,2.6416 2.05457,5.06306 2.34808,5.42995 0.29351,0.29351 2.42147,0 4.76955,-0.6604 6.89751,-1.9812 10.8599,-0.36689 13.94176,5.65008 l 1.83445,3.59551 3.44875,-0.51364 c 4.62279,-0.80716 7.85141,-0.51365 10.41963,0.80715 2.86173,1.46755 4.62279,1.39418 6.2371,-0.36689 3.37537,-3.74226 -2.78835,-8.80532 -10.56639,-8.80532 -3.74226,0 -4.10915,-0.14676 -6.45723,-2.86173 -1.3208,-1.61431 -4.25591,-3.81564 -6.45724,-4.91631 -3.37537,-1.6143 -4.76955,-1.90782 -8.43843,-1.6143 -3.00849,0.22013 -4.40266,0.0734 -4.40266,-0.51365 0,-1.83444 -5.9436,-9.97936 -8.8787,-12.03394 -6.01697,-4.40266 -13.94176,-6.2371 -21.93993,-5.06306 z"
         id="path11"
         style="fill:#163b40;fill-opacity:1;stroke:none;stroke-width:0.0733777" />
      <path
         d="m 219.51981,459.88451 c -6.67737,1.39417 -13.06123,6.31048 -15.62945,11.96056 -0.80715,1.83444 -1.17404,1.9812 -5.79684,1.9812 -3.88901,0 -5.35657,0.29351 -6.8975,1.54093 -2.05457,1.61431 -2.64159,5.20981 -0.95391,6.31048 0.44027,0.29351 3.66889,0.6604 7.11764,0.73378 3.44875,0 7.19101,0.22013 8.43843,0.36688 2.05458,0.22014 2.27471,0 3.59551,-3.81563 3.00848,-8.21831 10.78652,-12.98786 17.97753,-11.00666 5.79684,1.54093 10.8599,8.8787 12.25408,17.68402 l 0.51364,3.00849 5.5767,-0.44027 c 4.84293,-0.44026 5.87022,-0.29351 7.99817,1.02729 3.22862,1.9812 5.72346,1.90782 7.11764,-0.29351 0.95391,-1.39418 1.02728,-2.12795 0.44026,-3.22862 -1.24742,-2.42146 -5.50332,-4.54941 -9.97936,-5.13644 -4.18253,-0.51364 -4.18253,-0.51364 -5.42995,-3.88901 -2.49484,-6.53062 -7.70466,-12.40083 -13.72163,-15.55607 -2.93511,-1.54093 -8.58519,-2.05458 -12.62096,-1.24742 z"
         id="path12"
         style="fill:#163b40;fill-opacity:1;stroke:none;stroke-width:0.0733777" />
      <path
         d="m 419.54738,526.87833 c -6.97088,1.9812 -13.06123,8.07155 -14.23527,14.23528 -0.22013,1.32079 -0.58702,2.42146 -0.80715,2.42146 -0.14676,0 -1.17405,-0.95391 -2.12796,-2.20133 -1.02728,-1.17404 -4.32928,-3.37538 -7.26439,-4.84293 -5.13644,-2.56822 -5.72346,-2.6416 -11.15341,-2.34809 -7.19101,0.44027 -11.44692,2.27471 -16.65673,7.19102 -5.28319,4.98968 -7.19101,9.46572 -7.63128,17.83078 -0.14676,3.5955 0,6.82412 0.36689,7.19101 0.6604,0.6604 94.07019,1.02729 94.73059,0.29351 0.58702,-0.58702 -2.05457,-5.94359 -4.18253,-8.2183 -1.61431,-1.76107 -2.05457,-3.302 -2.78835,-8.8787 -1.39418,-10.93328 -5.72346,-17.53727 -14.08852,-21.49966 -4.18252,-1.90782 -9.75923,-2.42147 -14.16189,-1.17405 z"
         id="path13"
         style="fill:#163b40;fill-opacity:1;stroke:none;stroke-width:0.0733777"
         inkscape:label="path13" />
    </g>
    <g
       id="g35"
       transform="matrix(1.1590584,0,0,1.1590584,-288.88105,-354.52028)"
       style="fill:#0d2426;fill-opacity:1">
      <path
         d="m 865.15436,447.93081 c -11.54084,3.00543 -18.75387,9.73759 -21.7593,20.19648 -6.3715,22.11994 10.81954,41.83555 34.50231,39.67164 13.3441,-1.20217 23.32212,-9.49715 27.04885,-22.24016 4.08738,-13.82497 -3.84695,-30.29471 -17.31126,-35.94492 -4.92891,-2.04369 -17.5517,-3.00542 -22.4806,-1.68304 z m 16.83039,7.6939 c 11.54084,6.49172 15.98888,23.68277 9.37694,36.42578 -6.01086,11.66106 -20.07626,14.0654 -28.85211,5.04912 -7.33324,-7.57368 -10.09823,-18.87409 -7.09281,-28.85211 4.2076,-14.0654 15.02714,-19.11452 26.56798,-12.62279 z"
         id="path14"
         style="fill:#0d2426;fill-opacity:1;stroke:none;stroke-width:0.120217" />
      <path
         d="m 939.44853,447.8106 -24.40408,0.24043 v 6.61194 c 0,5.16934 0.36066,6.61194 1.80326,6.61194 1.08196,0 2.40434,-1.32239 3.00543,-2.88521 1.4426,-3.84695 5.16933,-5.77042 9.97802,-5.28955 l 3.84695,0.36065 v 24.04342 c 0,23.08168 -0.12022,24.04342 -2.52456,25.24559 -1.32239,0.60109 -2.28413,1.92347 -1.92348,2.76499 0.72131,2.16391 23.08169,2.0437 23.08169,-0.24043 0,-0.96174 -1.32239,-2.04369 -3.00543,-2.40434 l -3.00543,-0.7213 v -24.64451 -24.64451 h 3.4863 c 5.6502,0 9.61736,2.0437 10.45888,5.40977 0.48087,1.92348 1.56283,3.00543 3.00543,3.00543 1.92348,0 2.28413,-0.84152 2.16391,-5.16933 -0.12022,-9.1365 1.20217,-8.65563 -25.96689,-8.29498 z"
         id="path15"
         style="fill:#0d2426;fill-opacity:1;stroke:none;stroke-width:0.120217" />
      <path
         d="m 994.74839,447.69038 c -15.26757,0.36065 -18.39321,0.7213 -18.39321,2.16391 0,0.96173 0.48086,1.80325 1.08195,1.80325 0.60109,0 2.04369,0.84152 3.00543,1.92348 1.56282,1.56282 1.92347,5.28955 1.92347,22.4806 0,22.96146 -0.36065,25.60624 -3.72673,26.44776 -1.20217,0.36065 -2.28412,1.4426 -2.28412,2.52456 0,1.80325 2.40434,1.92347 21.27842,1.68304 l 21.2784,-0.36066 0.7213,-3.00542 c 2.4044,-9.01629 2.4044,-10.81954 0.1202,-10.81954 -1.3223,0 -2.8852,1.4426 -3.7267,3.60651 -0.8415,2.04369 -2.5245,4.2076 -3.7267,4.80868 -2.5246,1.44261 -15.50802,1.56283 -17.43149,0.24044 -0.84152,-0.48087 -1.56282,-5.40977 -1.92347,-11.42063 l -0.48087,-10.5791 7.81413,0.36065 c 7.213,0.36065 7.9343,0.60109 8.295,3.00543 0.2404,1.80326 1.2021,2.76499 2.765,2.76499 2.1639,0 2.4043,-0.7213 2.0436,-8.05454 -0.3606,-8.53542 -2.0436,-10.81954 -4.3278,-5.77042 -1.3224,2.76499 -2.0437,3.00542 -8.6556,3.00542 h -7.21303 v -10.81954 -10.81954 h 7.21303 c 6.1311,0 7.8141,0.48087 10.2184,3.00543 1.6831,1.56282 3.0055,3.72673 3.0055,4.80869 0,0.96173 1.0819,1.80325 2.4043,1.80325 2.6448,0 3.0054,-2.64477 1.6831,-11.18019 -0.6011,-3.12564 -1.3224,-4.32781 -2.765,-4.2076 -1.082,0.12022 -10.2185,0.48087 -20.19651,0.60109 z"
         id="path16"
         style="fill:#0d2426;fill-opacity:1;stroke:none;stroke-width:0.120217" />
      <path
         d="m 1058.3432,450.09472 c -0.7213,1.92348 -4.3278,11.18019 -7.8141,20.79756 -7.8141,20.91778 -12.5026,30.89579 -14.7867,31.73731 -0.9617,0.36066 -1.683,1.44261 -1.683,2.52456 0,1.44261 1.683,1.80326 8.4152,1.80326 6.4917,0 8.4152,-0.36065 8.4152,-1.68304 0,-0.96174 -1.082,-2.16391 -2.5246,-2.52456 -2.1639,-0.7213 -2.4043,-1.4426 -1.683,-5.16933 0.4808,-2.40435 1.5628,-5.89064 2.5245,-7.6939 1.6831,-3.24586 2.0437,-3.36608 11.3004,-3.36608 h 9.6174 l 1.9235,4.44804 c 0.9617,2.52455 2.1639,6.01085 2.5245,7.81411 0.4809,2.76499 0.1203,3.36608 -2.5245,4.08738 -1.6831,0.36065 -3.1257,1.4426 -3.1257,2.40434 0,1.32239 2.6448,1.68304 12.6228,1.68304 13.4644,0 15.7485,-1.20217 9.2568,-4.9289 -2.765,-1.56282 -5.0492,-6.13107 -13.9452,-28.49145 -10.2185,-25.84668 -10.5791,-26.6882 -13.9452,-26.6882 -2.5246,0 -3.6065,0.84152 -4.5683,3.24586 z m 6.8524,22.84125 3.6065,8.77585 h -8.295 -8.2949 l 3.7267,-10.93976 c 2.765,-7.93433 4.0874,-10.33867 4.6885,-8.65563 0.4808,1.20217 2.5245,6.13107 4.5682,10.81954 z"
         id="path17"
         style="fill:#0d2426;fill-opacity:1;stroke:none;stroke-width:0.120217" />
      <path
         d="m 1156.6808,457.18753 c -2.6448,5.89064 -6.8523,15.14736 -9.3769,20.55712 -2.4043,5.40977 -4.6885,9.61737 -5.0491,9.37694 -0.4809,-0.24044 -4.6885,-9.1365 -9.6174,-19.71561 l -8.8961,-19.35495 h -8.1747 c -8.5354,0 -9.978,0.96174 -5.6502,3.84695 l 2.6448,1.68304 -2.0437,22.72103 c -1.8033,19.95604 -2.4044,23.2019 -4.5683,25.60624 -3.7267,3.96717 -1.5628,5.28955 8.0546,4.80869 8.7758,-0.36066 11.5408,-2.40435 6.131,-4.56825 -1.8032,-0.60109 -3.4863,-2.04369 -3.8469,-3.00543 -0.9618,-2.40434 0.7213,-36.66622 1.8032,-36.66622 0.3607,0 5.0492,9.85781 10.4589,21.99973 5.2896,12.02171 10.4589,21.99973 11.4206,22.24017 1.2022,0.24043 2.8853,-2.52456 4.929,-7.81412 4.0873,-10.33867 14.9069,-35.22361 15.7484,-35.94491 0.3606,-0.36065 0.9617,5.77042 1.3224,13.58453 0.4808,7.81412 1.0819,16.46975 1.4426,19.35496 0.6011,4.56825 0.3606,5.16933 -2.5246,6.25129 -1.8032,0.7213 -3.0054,1.92347 -2.6448,2.76499 0.2405,0.96174 3.7268,1.4426 11.1802,1.4426 9.2568,0 10.6994,-0.24043 11.06,-2.1639 0.2404,-1.20217 -0.3606,-2.04369 -1.4426,-2.04369 -0.9617,0 -2.1639,-0.72131 -2.765,-1.56283 -1.4426,-2.28412 -5.1693,-48.32727 -3.8469,-48.68792 2.0437,-0.84152 1.0819,-3.84695 -1.2022,-3.84695 -1.2022,0 -3.9672,-0.36065 -6.0109,-0.7213 -3.7267,-0.7213 -3.7267,-0.7213 -8.5354,9.8578 z"
         id="path18"
         style="fill:#0d2426;fill-opacity:1;stroke:none;stroke-width:0.120217" />
      <path
         d="m 1211.7403,447.69038 c -13.1037,0.36065 -17.7922,0.84152 -17.7922,1.92347 0,0.84152 1.2022,2.04369 2.765,2.64478 2.6448,1.20217 2.6448,1.56282 3.0054,25.00516 l 0.2405,23.68276 -3.0054,1.44261 c -1.6831,0.7213 -3.0055,2.04369 -3.0055,3.00543 0,1.20217 4.3278,1.56282 21.5189,1.56282 23.803,0 22.2402,0.60109 23.5625,-8.89607 0.7213,-4.56825 0.6011,-5.52998 -1.0819,-5.52998 -0.9618,0 -2.6448,1.56282 -3.7267,3.60651 -2.4044,4.68847 -5.1694,6.01086 -12.6228,6.01086 -10.0983,0 -10.8196,-0.84152 -10.8196,-12.6228 v -10.21845 h 7.213 c 6.612,0 7.4535,0.24043 8.6557,3.00542 2.5245,5.77043 4.5682,3.60652 4.5682,-4.80868 0,-5.89064 -0.3606,-7.81411 -1.683,-7.81411 -0.8415,0 -1.9235,1.08195 -2.2841,2.40434 -0.4809,2.04369 -1.6831,2.40434 -8.5355,2.40434 h -7.9343 v -10.81954 -10.81954 h 7.3333 c 8.6556,0 11.0599,1.08196 13.1036,6.01086 1.8033,4.44803 6.7322,5.28955 5.53,0.84152 -0.3606,-1.44261 -0.7213,-4.9289 -0.7213,-7.81411 0,-4.80869 -0.1202,-5.04912 -3.2458,-4.80869 -1.9235,0.12022 -11.3005,0.48087 -21.038,0.60109 z"
         id="path19"
         style="fill:#0d2426;fill-opacity:1;stroke:none;stroke-width:0.120217" />
      <path
         d="m 1400.7216,448.65212 c -20.437,6.49172 -27.1691,31.97774 -12.8633,48.20705 7.3333,8.29498 12.743,10.57911 24.885,10.57911 8.1747,0 11.1802,-0.48087 15.1473,-2.64478 9.6174,-4.9289 16.1091,-15.38779 16.1091,-25.72646 0,-11.66106 -8.4152,-25.24559 -17.9123,-29.09254 -7.0928,-2.76499 -18.9943,-3.36607 -25.3658,-1.32238 z m 18.6336,6.97259 c 2.5246,1.4426 6.2513,4.9289 8.295,7.69389 3.0054,4.32782 3.6065,6.49173 4.0874,14.42605 0.4808,9.01629 0.3606,9.61737 -3.4863,15.38779 -6.0109,8.77585 -13.2239,11.54084 -21.6391,8.17477 -6.3715,-2.52456 -11.4206,-8.65564 -13.825,-16.8304 -6.131,-21.15821 9.7376,-38.46947 26.568,-28.8521 z"
         id="path20"
         style="fill:#0d2426;fill-opacity:1;stroke:none;stroke-width:0.120217" />
      <path
         d="m 788.8165,449.61385 c 0,0.84152 1.08195,2.16391 2.40434,3.00543 2.28413,1.32239 2.40434,2.76499 2.40434,24.88494 0,22.11995 -0.12021,23.44233 -2.40434,24.64451 -1.32239,0.7213 -2.40434,2.04369 -2.40434,3.00542 0,1.56283 3.36608,1.80326 21.03799,1.80326 h 20.91778 l 0.7213,-4.56825 c 0.36065,-2.40434 0.96174,-5.6502 1.32239,-7.21303 0.84152,-4.20759 -3.36608,-3.24586 -5.52999,1.32239 -2.16391,4.68847 -8.05454,6.37151 -16.58996,4.80869 l -5.6502,-0.96174 -0.36065,-23.08168 c -0.24044,-22.11995 -0.24044,-23.2019 2.1639,-24.40408 1.32239,-0.7213 2.40435,-2.04369 2.40435,-3.00542 0,-1.44261 -2.04369,-1.80326 -10.21846,-1.80326 -7.45346,0 -10.21845,0.36065 -10.21845,1.56282 z"
         id="path21"
         style="fill:#0d2426;fill-opacity:1;stroke:none;stroke-width:0.120217" />
      <path
         d="m 1252.8545,449.61385 c 0,0.84152 1.2022,2.04369 2.765,2.64478 2.5246,1.20217 2.6448,1.80326 3.0054,21.63908 0.3607,23.56255 -0.1202,27.77015 -3.3661,28.8521 -1.3223,0.48087 -2.4043,1.56282 -2.4043,2.52456 0,1.32239 2.0437,1.68304 9.0163,1.68304 7.213,0 9.0163,-0.36065 9.0163,-1.80326 0,-0.96173 -0.7213,-1.80325 -1.5629,-1.80325 -0.9617,0 -2.5245,-0.96174 -3.6065,-2.16391 -1.683,-1.92347 -2.0437,-5.16934 -2.0437,-20.43691 0,-10.09823 0.3607,-18.273 0.9618,-18.273 0.4809,0.12022 9.1365,10.09824 19.2347,22.24017 10.3387,12.38236 19.355,22.24016 20.4369,22.24016 1.8033,0 2.0437,-2.52456 1.6831,-27.04885 -0.4809,-24.16363 -0.2405,-27.04885 1.4426,-27.04885 1.0819,0 1.9234,-0.96173 1.9234,-2.40434 0,-2.1639 -0.8415,-2.40434 -7.8141,-2.40434 -6.131,0 -7.8141,0.36065 -7.8141,1.80326 0,0.96173 1.3224,2.04369 2.8852,2.52456 2.6448,0.60108 2.765,1.20217 3.6065,16.95061 0.4809,9.01628 0.6011,16.46974 0.3607,16.71017 -0.4809,0.48087 -31.2565,-35.10339 -31.8575,-36.78643 -0.7213,-1.92347 -15.8687,-1.56282 -15.8687,0.36065 z"
         id="path22"
         style="fill:#0d2426;fill-opacity:1;stroke:none;stroke-width:0.120217" />
      <path
         d="m 1322.0996,449.49364 c -0.3607,0.84152 -0.8416,3.84694 -1.082,6.61194 -0.4809,4.2076 -0.2404,5.16933 1.3224,5.16933 1.2022,0 3.0054,-1.68304 4.0874,-3.60651 1.8032,-3.24586 2.6448,-3.60651 8.1747,-3.60651 h 6.0109 v 23.44233 23.44233 l -3.0054,1.44261 c -1.6831,0.7213 -3.0055,2.04369 -3.0055,3.00543 0,1.20217 2.765,1.56282 12.0218,1.56282 13.1036,0 15.1473,-1.20217 8.4152,-5.04912 l -3.6066,-2.04369 0.2405,-23.2019 0.3606,-23.2019 5.0491,0.12022 c 5.2896,0.12021 9.9781,3.00542 9.9781,6.13107 0,0.84152 1.0819,1.56282 2.4043,1.56282 2.1639,0 2.4043,-0.84152 2.4043,-6.61194 v -6.61194 h -24.6445 c -18.7538,0 -24.8849,0.36065 -25.1253,1.44261 z"
         id="path23"
         style="fill:#0d2426;fill-opacity:1;stroke:none;stroke-width:0.120217" />
    </g>
    <g
       id="g34"
       transform="translate(0,-262.55479)"
       style="fill:#0d2426;fill-opacity:1">
      <path
         d="m 561.60618,545.42688 c -28.61167,7.6939 -45.20163,26.20733 -47.60597,52.77531 -1.56282,18.273 4.9289,35.70448 18.03256,47.96662 12.50258,11.66106 26.92863,16.95061 46.04315,17.07083 10.57911,0 18.03257,-1.44261 32.57884,-6.25129 l 11.05997,-3.72673 v -17.31126 c 0,-16.71018 0.12022,-17.43148 3.00543,-20.19647 1.56282,-1.68304 3.72673,-3.00543 4.80868,-3.00543 0.96174,0 1.80326,-1.08196 1.80326,-2.40434 0,-2.28413 -0.84152,-2.40435 -20.43691,-2.40435 -19.47517,0 -20.43691,0.12022 -20.43691,2.40435 0,1.68304 1.08196,2.52455 4.2076,3.12564 7.21303,1.32239 9.1365,5.52999 9.1365,19.47517 0,6.61194 -0.36065,12.74301 -0.84152,13.82497 -1.08195,3.00542 -10.81954,6.85237 -18.9943,7.69389 -15.38779,1.44261 -31.01601,-6.25129 -39.91208,-19.7156 -6.85237,-10.33867 -9.1365,-18.39322 -9.25671,-32.21819 -0.36065,-31.97774 16.22931,-51.09226 44.60054,-51.3327 15.74844,-0.12021 26.92863,5.77042 32.69905,17.31127 1.92348,4.08738 3.60652,8.05454 3.60652,9.01628 0,0.96173 1.4426,1.56282 3.60651,1.56282 h 3.60651 v -14.30584 -14.42605 l -6.25129,-1.68304 c -12.14192,-3.48629 -19.7156,-4.56825 -32.81927,-5.16933 -10.69932,-0.36065 -14.90692,0 -22.24016,1.92347 z"
         id="path24"
         style="fill:#0d2426;fill-opacity:1;stroke:none;stroke-width:0.120217" />
      <path
         d="m 1236.0241,544.34493 c -9.6174,0.48087 -19.956,0.84152 -23.0817,0.96173 -4.9289,0.12022 -5.7704,0.48087 -5.7704,2.52456 0,1.80326 0.8415,2.40435 3.1257,2.40435 1.8032,0 4.5682,1.4426 6.6119,3.60651 l 3.6065,3.48629 -0.3606,45.80272 -0.3607,45.92293 -3.3661,2.88521 c -1.8032,1.56282 -4.6884,2.88521 -6.3715,2.88521 -2.2841,0 -2.8852,0.60109 -2.8852,2.765 v 2.88521 l 25.0052,0.12021 c 46.0431,0.24044 63.3544,-4.20759 79.223,-20.31669 13.5846,-13.70475 18.7539,-32.21818 14.7867,-52.7753 -6.2513,-32.69905 -33.1799,-45.56228 -90.1628,-43.15794 z m 37.628,10.81954 c 23.5625,7.81411 34.5023,23.08168 34.5023,48.32727 0,21.51886 -10.9398,38.22904 -29.8139,45.44206 -9.1365,3.4863 -27.8903,4.56825 -34.0214,1.92348 -3.3661,-1.32239 -4.5683,-2.64478 -5.1693,-5.65021 -0.3607,-2.1639 -0.7213,-23.80298 -0.7213,-48.08684 0,-34.26187 0.3606,-44.48032 1.5628,-44.96119 3.2458,-1.56282 26.2073,0.48087 33.6608,3.00543 z"
         id="path25"
         style="fill:#0d2426;fill-opacity:1;stroke:none;stroke-width:0.120217" />
      <path
         d="m 663.79072,545.42688 c -12.98345,0.48087 -16.22931,0.96174 -16.22931,2.28413 0,0.96173 1.80325,2.1639 4.2076,2.76499 8.65563,2.16391 8.41519,0.7213 8.41519,51.45292 0,43.39837 -0.12021,45.44206 -2.40434,48.44749 -1.32239,1.56282 -3.60651,3.24586 -5.28955,3.72673 -2.64478,0.60109 -4.9289,4.56825 -3.36608,6.01086 0.36065,0.36065 10.33867,0.7213 22.11995,0.7213 h 21.39864 v -2.765 c 0,-2.28412 -0.96174,-3.12564 -4.56825,-4.20759 -8.65563,-2.64478 -9.25672,-4.08739 -9.73759,-25.60625 l -0.36065,-19.11452 h 7.81412 7.93432 l 8.65563,12.86323 c 14.66649,21.7593 16.8304,24.88494 21.39865,29.57341 5.89064,6.37151 12.02171,9.25672 21.03799,10.09824 10.33867,0.96173 13.94518,0 13.94518,-3.84695 0,-2.52456 -0.60108,-3.00543 -3.36607,-3.00543 -7.33325,0 -15.38779,-8.41519 -33.78101,-35.46404 l -9.8578,-14.30584 5.28955,-1.56282 c 2.76499,-0.84152 7.33324,-3.36608 10.09824,-5.77042 6.97259,-5.89064 9.97802,-12.74301 9.97802,-22.36038 0,-14.54627 -8.29498,-25.48603 -21.51886,-28.73189 -6.73216,-1.56282 -28.01059,-2.04369 -51.81357,-1.20217 z m 40.63338,9.01628 c 9.49715,4.08739 13.46431,10.69933 13.46431,22.84125 -0.12022,15.98888 -11.30041,24.52429 -31.85753,24.16364 l -7.21303,-0.12022 -0.36065,-24.28385 c -0.24043,-22.24016 -0.12022,-24.28386 1.80326,-24.88494 3.84695,-1.08195 19.47517,0.36065 24.16364,2.28412 z"
         id="path26"
         style="fill:#0d2426;fill-opacity:1;stroke:none;stroke-width:0.120217" />
      <path
         d="m 821.27512,546.50884 c -0.72131,1.4426 -3.12565,7.21302 -5.28956,12.98344 -9.01628,23.32212 -34.74274,85.35414 -36.90665,88.84044 -1.20217,2.16391 -3.84694,4.44803 -5.77042,5.28955 -3.24586,1.32239 -5.52998,5.04912 -3.96716,6.49173 1.08195,1.20217 35.10339,0.84151 35.10339,-0.36066 0,-0.60108 0.24044,-1.92347 0.60109,-2.76499 0.48087,-1.08195 -0.96174,-2.04369 -4.68847,-3.12564 -8.05454,-2.16391 -8.89606,-4.56825 -5.04912,-15.38779 1.80326,-4.80869 4.2076,-11.18019 5.40977,-14.0654 l 2.28413,-5.28956 20.19647,0.12022 20.07626,0.12022 4.56825,12.02171 c 5.40977,14.18562 5.77042,18.87408 2.04369,21.51886 -1.44261,1.08195 -3.60652,1.92347 -4.80869,1.92347 -1.56282,0 -2.16391,0.96174 -2.16391,3.00543 v 3.00543 h 21.038 21.03799 v -2.88521 c 0,-1.92348 -0.84152,-3.12565 -2.76499,-3.60652 -6.9726,-1.68303 -6.25129,-0.12021 -45.20163,-98.09715 l -4.56825,-11.42062 -4.9289,-0.36065 c -3.96717,-0.24044 -5.16934,0.12021 -6.25129,2.04369 z m 5.16933,29.5734 c 1.68304,4.56825 5.16934,13.94519 7.93433,20.79756 2.76499,6.73216 4.9289,12.74301 4.9289,13.3441 0,0.48087 -7.69389,1.08195 -16.95061,1.20217 -15.98887,0.24043 -16.95061,0.12022 -16.10909,-1.92347 3.60651,-9.1365 15.02714,-41.4749 15.02714,-42.67707 0,-3.00543 2.1639,0.96173 5.16933,9.25671 z"
         id="path27"
         style="fill:#0d2426;fill-opacity:1;stroke:none;stroke-width:0.120217" />
      <path
         d="m 906.62926,545.42688 c -1.20217,0.7213 -2.04369,5.04912 -4.08738,22.4806 -0.84152,6.37151 -0.84152,6.37151 2.52456,6.37151 3.00542,0 3.60651,-0.72131 5.52998,-7.09281 3.96717,-12.74302 3.96717,-12.74302 34.74274,-13.10367 l 26.44777,-0.36065 -6.49173,9.37694 c -3.60651,5.16933 -12.38236,17.43148 -19.47517,27.40949 -7.21302,9.85781 -18.273,25.60625 -24.52429,34.86296 -6.3715,9.25672 -14.18561,20.31669 -17.43148,24.52429 -5.6502,7.21303 -5.89063,7.81411 -3.84694,9.37694 1.80325,1.20217 11.54084,1.56282 47.1251,1.56282 h 44.84098 l 1.20217,-2.765 c 1.32239,-3.24586 5.04912,-28.61167 4.32782,-29.45318 -0.36066,-0.24044 -1.80326,-0.24044 -3.36608,0.12021 -2.04369,0.60109 -3.36608,2.40434 -5.04912,6.97259 -2.64478,7.6939 -7.21303,12.50258 -13.46432,14.18562 -6.01085,1.56282 -42.1962,3.12565 -47.8464,2.04369 l -4.44804,-0.84152 2.765,-4.44803 c 2.64477,-4.44803 29.09254,-42.55685 53.73704,-77.66025 7.33324,-10.45888 13.3441,-19.7156 13.3441,-20.55712 0,-0.96174 -0.60109,-2.04369 -1.44261,-2.52456 -1.68303,-1.08195 -83.31045,-1.56282 -85.1137,-0.48087 z"
         id="path28"
         style="fill:#0d2426;fill-opacity:1;stroke:none;stroke-width:0.120217" />
      <path
         d="m 1021.1962,545.06623 c -4.0874,0.36065 -5.1694,0.96174 -5.1694,2.76499 0,1.44261 1.2022,2.52456 3.3661,3.00543 1.8033,0.36065 4.5682,1.68304 6.2513,3.00543 l 3.0054,2.28412 0.3607,45.56228 0.3606,45.6825 -2.765,3.12565 c -1.5628,1.68304 -4.6884,3.48629 -6.9726,4.08738 -3.0054,0.7213 -4.3278,1.68304 -4.5682,3.60651 -0.3607,2.64478 -0.3607,2.64478 21.8795,2.64478 h 22.3604 v -3.00543 c 0,-2.40434 -0.6011,-3.00543 -3.0055,-3.00543 -1.683,0 -4.448,-1.32239 -6.0108,-3.00542 -3.0054,-2.88522 -3.0054,-2.88522 -3.1257,-29.69363 -0.1202,-26.44776 -0.1202,-47.24532 0,-59.62768 0.1203,-7.09281 2.8853,-11.05997 7.8142,-11.05997 3.2458,0 5.2895,-4.68847 2.765,-6.25129 -1.4427,-0.96174 -26.6882,-0.96174 -36.546,-0.12022 z"
         id="path29"
         style="fill:#0d2426;fill-opacity:1;stroke:none;stroke-width:0.120217" />
      <path
         d="m 1128.0692,546.2684 c -0.7213,1.20217 -9.1365,21.87951 -18.8741,46.04315 -21.8795,54.33813 -24.0434,58.90638 -29.0926,61.1905 -2.8852,1.32239 -3.9671,2.52456 -3.9671,4.56825 0,2.765 0,2.765 17.3112,2.765 16.8304,0 17.3113,-0.12022 17.9124,-2.64478 0.4808,-1.4426 0.6011,-2.64477 0.4808,-2.76499 -11.5408,-3.72673 -11.0599,-3.36608 -11.3004,-8.4152 -0.2404,-3.24586 1.082,-8.4152 4.2076,-16.22931 l 4.5683,-11.42062 h 20.1965 20.1964 l 4.6885,12.50258 c 6.6119,17.43148 6.2513,20.79756 -2.2841,22.48059 -3.0055,0.60109 -3.847,1.44261 -3.847,3.60652 v 2.88521 h 22.2402 22.2402 v -3.00543 c 0,-2.16391 -0.6011,-3.00543 -2.4044,-3.00543 -1.2022,0 -4.2076,-1.56282 -6.3715,-3.60651 -3.6065,-3.12564 -6.3715,-9.1365 -19.4752,-42.31642 -8.4152,-21.39864 -17.6719,-44.48033 -20.5571,-51.45292 l -5.0491,-12.62279 -4.9289,-0.36065 c -3.6065,-0.24044 -5.0491,0.12021 -5.8906,1.80325 z m 3.1256,24.64451 c 0.8415,2.88521 4.5683,12.62279 8.1748,21.63908 3.6065,9.01628 6.4917,16.95061 6.4917,17.67191 0,0.84152 -5.53,1.32239 -16.9506,1.32239 -9.8578,0 -16.7102,-0.48087 -16.4698,-1.08196 0.2405,-0.60108 3.847,-10.93975 8.1748,-22.84125 4.3278,-12.02171 8.0545,-21.75929 8.4152,-21.75929 0.3606,0 1.3224,2.28412 2.1639,5.04912 z"
         id="path30"
         style="fill:#0d2426;fill-opacity:1;stroke:none;stroke-width:0.120217" />
      <path
         d="m 1353.5964,545.18645 c -6.9725,0.24043 -8.1747,0.7213 -8.1747,2.52456 0,1.4426 1.2022,2.40434 3.6065,2.88521 6.8524,1.4426 8.4152,4.32781 8.5354,16.71017 0.3607,51.45292 -0.1202,80.42524 -1.2022,82.58915 -0.7213,1.32239 -3.4863,3.12565 -6.131,3.84695 -6.1311,1.80326 -6.612,5.28955 -0.8416,6.37151 2.0437,0.36065 21.6391,0.60108 43.5186,0.36065 l 39.6717,-0.24044 2.0437,-10.81954 c 2.8852,-14.7867 2.765,-18.63365 -0.2405,-18.63365 -2.8852,0 -4.0873,1.32239 -8.1747,9.61737 -4.2076,8.65563 -8.5354,10.81954 -23.3221,11.66106 -13.2239,0.84152 -24.4041,-1.08195 -26.2074,-4.44803 -0.7213,-1.20217 -1.2021,-11.42063 -1.2021,-22.72104 v -20.55712 h 15.508 c 13.8249,0 15.7484,0.24044 18.6336,2.52456 1.8033,1.44261 3.1257,3.60651 3.1257,5.40977 0,2.28412 0.601,2.88521 3.0054,2.88521 h 3.0054 v -15.14735 c 0,-14.90693 0,-15.02714 -2.6448,-14.66649 -1.5628,0.24043 -2.8852,1.4426 -3.366,3.00543 -0.3607,1.56282 -1.5629,3.84694 -2.6448,5.16933 -1.9235,2.16391 -3.6065,2.40434 -17.7921,2.40434 h -15.6283 v -21.75929 -21.63908 l 17.3113,0.36065 c 20.4369,0.48087 22.721,1.44261 26.4478,11.54084 1.9234,5.52999 2.6447,6.25129 5.6502,6.25129 3.9671,0 4.0873,-0.7213 2.765,-17.31126 l -0.8416,-9.25672 -33.1799,0.36066 c -18.273,0.24043 -36.7864,0.48086 -41.2345,0.7213 z"
         id="path31"
         style="fill:#0d2426;fill-opacity:1;stroke:none;stroke-width:0.120217" />
      <path
         d="m 1455.0597,547.47057 c 0.2404,1.08196 2.1639,2.52456 4.3278,3.00543 7.213,1.92347 7.4535,3.84695 7.4535,52.29444 0,31.97775 -0.4809,43.75902 -1.5629,46.04315 -0.8415,1.68304 -3.4863,3.72673 -6.2513,4.68846 -6.131,2.16391 -5.7704,1.92348 -4.8086,4.80869 0.7213,2.40434 1.5628,2.52456 21.1582,2.52456 h 20.3167 v -2.765 c 0,-2.04369 -1.082,-3.12564 -4.2076,-4.32781 -2.2842,-0.84152 -4.8087,-2.52456 -5.53,-3.84695 -0.8415,-1.68304 -1.3224,-17.91235 -1.4426,-47.24532 -0.2405,-40.87381 0,-44.96119 1.9234,-47.96662 1.082,-1.80326 3.6066,-3.60651 5.4098,-3.96717 3.4863,-0.84152 5.2896,-2.76499 4.3278,-4.32781 -0.3606,-0.48087 -9.8578,-0.96174 -21.038,-0.96174 -18.6336,0 -20.4369,0.24044 -20.0762,2.04369 z"
         id="path32"
         style="fill:#0d2426;fill-opacity:1;stroke:none;stroke-width:0.120217" />
    </g>
  </g>
</svg>
